<svg width="237" height="331" viewBox="0 0 237 331" version="1.1" xmlns="http://www.w3.org/2000/svg" xmlns:xlink="http://www.w3.org/1999/xlink">
<title>Group</title>
<desc>Created using Figma</desc>
<g id="Canvas" transform="translate(-7510 -4816)">
<g id="Group">
<g id="Vector">
<use xlink:href="#path0_fill" transform="translate(7511 4858.89)" fill="#FFFFFF"/>
<use xlink:href="#path1_stroke" transform="translate(7511 4858.89)" fill="#7C7E8F"/>
</g>
<g id="Vector">
<use xlink:href="#path2_fill" transform="translate(7531.19 4836.34)" fill="#FFFFFF"/>
<use xlink:href="#path3_stroke" transform="translate(7531.19 4836.34)" fill="#F2C94C"/>
</g>
<g id="Vector">
<use xlink:href="#path4_fill" transform="translate(7517.69 4901.59)" fill="#FFFFFF"/>
<use xlink:href="#path5_stroke" transform="translate(7517.69 4901.59)" fill="#7C7E8F"/>
</g>
<g id="Vector">
<use xlink:href="#path6_fill" transform="translate(7515.75 5050.23)" fill="#FFFFFF"/>
<use xlink:href="#path7_stroke" transform="translate(7515.75 5050.23)" fill="#7C7E8F"/>
</g>
<g id="Vector">
<use xlink:href="#path8_fill" transform="translate(7531.5 4927.67)" fill="#FFFFFF"/>
<use xlink:href="#path9_stroke" transform="translate(7531.5 4927.67)" fill="#F2C94C"/>
</g>
<g id="Vector">
<use xlink:href="#path10_fill" transform="translate(7531.38 4985.91)" fill="#FFFFFF"/>
<use xlink:href="#path11_stroke" transform="translate(7531.38 4985.91)" fill="#7C7E8F"/>
</g>
<g id="Vector">
<use xlink:href="#path12_fill" transform="translate(7532.41 5029.6)" fill="#FFFFFF"/>
<use xlink:href="#path13_stroke" transform="translate(7532.41 5029.6)" fill="#7C7E8F"/>
</g>
<g id="Vector">
<use xlink:href="#path14_fill" transform="translate(7574 4937.9)" fill="#FFFFFF"/>
<use xlink:href="#path15_stroke" transform="translate(7574 4937.9)" fill="#7C7E8F"/>
</g>
<g id="Vector">
<use xlink:href="#path16_fill" transform="translate(7575.56 4991.72)" fill="#FFFFFF"/>
<use xlink:href="#path17_stroke" transform="translate(7575.56 4991.72)" fill="#7C7E8F"/>
</g>
<g id="Vector">
<use xlink:href="#path18_fill" transform="translate(7561.81 4966.21)" fill="#FFFFFF"/>
<use xlink:href="#path19_stroke" transform="translate(7561.81 4966.21)" fill="#7C7E8F"/>
</g>
<g id="Vector">
<use xlink:href="#path20_fill" transform="translate(7561.81 5024.26)" fill="#FFFFFF"/>
<use xlink:href="#path21_stroke" transform="translate(7561.81 5024.26)" fill="#7C7E8F"/>
</g>
<g id="Vector">
<use xlink:href="#path22_fill" transform="translate(7704.5 4858.89)" fill="#FFFFFF"/>
<use xlink:href="#path23_stroke" transform="translate(7704.5 4858.89)" fill="#7C7E8F"/>
</g>
<g id="Vector">
<use xlink:href="#path24_fill" transform="translate(7685.92 4836.34)" fill="#FFFFFF"/>
<use xlink:href="#path25_stroke" transform="translate(7685.92 4836.34)" fill="#7C7E8F"/>
</g>
<g id="Vector">
<use xlink:href="#path26_fill" transform="translate(7729.38 4901.59)" fill="#FFFFFF"/>
<use xlink:href="#path27_stroke" transform="translate(7729.38 4901.59)" fill="#7C7E8F"/>
</g>
<g id="Vector">
<use xlink:href="#path28_fill" transform="translate(7699.81 5050.23)" fill="#FFFFFF"/>
<use xlink:href="#path29_stroke" transform="translate(7699.81 5050.23)" fill="#7C7E8F"/>
</g>
<g id="Vector">
<use xlink:href="#path30_fill" transform="translate(7685.62 4927.67)" fill="#FFFFFF"/>
<use xlink:href="#path31_stroke" transform="translate(7685.62 4927.67)" fill="#7C7E8F"/>
</g>
<g id="Vector">
<use xlink:href="#path32_fill" transform="translate(7685.62 4985.91)" fill="#FFFFFF"/>
<use xlink:href="#path33_stroke" transform="translate(7685.62 4985.91)" fill="#7C7E8F"/>
</g>
<g id="Vector">
<use xlink:href="#path34_fill" transform="translate(7684.9 5029.6)" fill="#FFFFFF"/>
<use xlink:href="#path35_stroke" transform="translate(7684.9 5029.6)" fill="#7C7E8F"/>
</g>
<g id="Vector">
<use xlink:href="#path36_fill" transform="translate(7577.5 4836.98)" fill="#FFFFFF"/>
<use xlink:href="#path37_stroke" transform="translate(7577.5 4836.98)" fill="#7C7E8F"/>
</g>
<g id="Vector">
<use xlink:href="#path38_fill" transform="translate(7580.63 4920.38)" fill="#FFFFFF"/>
<use xlink:href="#path39_stroke" transform="translate(7580.63 4920.38)" fill="#7C7E8F"/>
</g>
<g id="Vector">
<use xlink:href="#path40_fill" transform="translate(7661.27 4937.9)" fill="#FFFFFF"/>
<use xlink:href="#path41_stroke" transform="translate(7661.27 4937.9)" fill="#7C7E8F"/>
</g>
<g id="Vector">
<use xlink:href="#path42_fill" transform="translate(7660.74 4991.72)" fill="#FFFFFF"/>
<use xlink:href="#path43_stroke" transform="translate(7660.74 4991.72)" fill="#7C7E8F"/>
</g>
<g id="Vector">
<use xlink:href="#path44_fill" transform="translate(7593.24 4945.67)" fill="#FFFFFF"/>
<use xlink:href="#path45_stroke" transform="translate(7593.24 4945.67)" fill="#7C7E8F"/>
</g>
<g id="Vector">
<use xlink:href="#path46_fill" transform="translate(7564.2 4918.55)" fill="#FFFFFF"/>
<use xlink:href="#path47_stroke" transform="translate(7564.2 4918.55)" fill="#7C7E8F"/>
</g>
<g id="Vector">
<use xlink:href="#path48_fill" transform="translate(7577.72 5042.42)" fill="#FFFFFF"/>
<use xlink:href="#path49_stroke" transform="translate(7577.72 5042.42)" fill="#7C7E8F"/>
</g>
<g id="Vector">
<use xlink:href="#path50_fill" transform="translate(7575.81 5063.67)" fill="#FFFFFF"/>
<use xlink:href="#path51_stroke" transform="translate(7575.81 5063.67)" fill="#7C7E8F"/>
</g>
<g id="Vector">
<use xlink:href="#path52_fill" transform="translate(7574.15 4817)" fill="#FFFFFF"/>
<use xlink:href="#path53_stroke" transform="translate(7574.15 4817)" fill="#7C7E8F"/>
</g>
<g id="Vector">
<use xlink:href="#path54_fill" transform="translate(7576.5 5093.5)" fill="#FFFFFF"/>
<use xlink:href="#path55_stroke" transform="translate(7576.5 5093.5)" fill="#7C7E8F"/>
</g>
<g id="Vector">
<use xlink:href="#path56_fill" transform="translate(7574.69 5120.02)" fill="#FFFFFF"/>
<use xlink:href="#path57_stroke" transform="translate(7574.69 5120.02)" fill="#7C7E8F"/>
</g>
<g id="Vector">
<use xlink:href="#path58_fill" transform="translate(7690.25 4966.21)" fill="#FFFFFF"/>
<use xlink:href="#path59_stroke" transform="translate(7690.25 4966.21)" fill="#7C7E8F"/>
</g>
<g id="Vector">
<use xlink:href="#path60_fill" transform="translate(7690.25 5024.26)" fill="#FFFFFF"/>
<use xlink:href="#path61_stroke" transform="translate(7690.25 5024.26)" fill="#7C7E8F"/>
</g>
<g id="Vector">
<use xlink:href="#path62_fill" transform="translate(7670.6 4918.55)" fill="#FFFFFF"/>
<use xlink:href="#path63_stroke" transform="translate(7670.6 4918.55)" fill="#7C7E8F"/>
</g>
<g id="Vector">
<use xlink:href="#path64_fill" transform="translate(7650.12 5094.18)" fill="#FFFFFF"/>
<use xlink:href="#path65_stroke" transform="translate(7650.12 5094.18)" fill="#7C7E8F"/>
</g>
<g id="Vector">
<use xlink:href="#path66_fill" transform="translate(7579.5 4846.35)" fill="#FFFFFF"/>
<use xlink:href="#path67_stroke" transform="translate(7579.5 4846.35)" fill="#7C7E8F"/>
</g>
<g id="Vector">
<use xlink:href="#path68_fill" transform="translate(7647.81 4846.35)" fill="#FFFFFF"/>
<use xlink:href="#path69_stroke" transform="translate(7647.81 4846.35)" fill="#7C7E8F"/>
</g>
</g>
</g>
<defs>
<path id="path0_fill" d="M 20.75 41.4528C 32.2099 41.4528 41.5 32.1732 41.5 20.7264C 41.5 9.27952 32.2099 0 20.75 0C 9.29009 0 0 9.27952 0 20.7264C 0 32.1732 9.29009 41.4528 20.75 41.4528Z"/>
<path id="path1_stroke" d="M 41 20.7264C 41 31.8966 31.9343 40.9528 20.75 40.9528L 20.75 41.9528C 32.4855 41.9528 42 32.4499 42 20.7264L 41 20.7264ZM 20.75 40.9528C 9.5657 40.9528 0.5 31.8966 0.5 20.7264L -0.5 20.7264C -0.5 32.4499 9.01449 41.9528 20.75 41.9528L 20.75 40.9528ZM 0.5 20.7264C 0.5 9.5562 9.5657 0.499999 20.75 0.499999L 20.75 -0.500001C 9.01449 -0.500001 -0.5 9.00284 -0.5 20.7264L 0.5 20.7264ZM 20.75 0.499999C 31.9343 0.499999 41 9.5562 41 20.7264L 42 20.7264C 42 9.00284 32.4855 -0.500001 20.75 -0.500001L 20.75 0.499999Z"/>
<path id="path2_fill" d="M 31.8125 12.6836C 30.5 6.81529 23.3125 2.88227 19 1.32155C 15.8125 0.135402 10.125 -0.0518835 5.8125 0.0105453C 2.5625 0.0729742 -4.76837e-07 2.69499 -4.76837e-07 5.94129L 0.062501 18.0525C 0.187501 18.0525 0.312501 18.0525 0.375001 18.0525C 14.125 18.0525 25.25 29.1648 25.25 42.8992C 25.25 56.5711 14.125 67.6834 0.4375 67.6834L 0.5625 83.4779C 0.5625 85.2883 2 86.8491 3.8125 86.9739L 36.625 89.2838C 38.5 89.4087 40.0625 87.8479 39.875 85.9126C 38.5625 71.6789 33.4375 19.9878 31.8125 12.6836Z"/>
<path id="path3_stroke" d="M 31.8125 12.6836L 32.7886 12.4664L 32.7884 12.4653L 31.8125 12.6836ZM 19 1.32155L 18.6512 2.2588L 18.6597 2.26186L 19 1.32155ZM 5.8125 0.0105453L 5.79802 -0.989361L 5.79329 -0.98927L 5.8125 0.0105453ZM -4.76837e-07 5.94129L -1.00001 5.94129L -0.999987 5.94645L -4.76837e-07 5.94129ZM 0.062501 18.0525L -0.937486 18.0576L -0.932352 19.0525L 0.062501 19.0525L 0.062501 18.0525ZM 0.4375 67.6834L 0.4375 66.6834L -0.570445 66.6834L -0.562469 67.6913L 0.4375 67.6834ZM 0.5625 83.4779L 1.56253 83.4779L 1.56247 83.47L 0.5625 83.4779ZM 3.8125 86.9739L 3.88272 85.9764L 3.88123 85.9763L 3.8125 86.9739ZM 36.625 89.2838L 36.5548 90.2813L 36.5586 90.2816L 36.625 89.2838ZM 39.875 85.9126L 38.8792 86.0045L 38.8797 86.0091L 39.875 85.9126ZM 32.7884 12.4653C 32.0586 9.20248 29.7243 6.57023 27.1387 4.59289C 24.5533 2.62244 21.5424 1.17947 19.3403 0.381235L 18.6597 2.26186C 20.7701 3.02435 23.5092 4.32825 25.9238 6.18157C 28.3382 8.02799 30.2539 10.2964 30.8366 12.9019L 32.7884 12.4653ZM 19.3488 0.384338C 15.9572 -0.877748 10.0799 -1.05134 5.79802 -0.98935L 5.82697 1.01044C 10.1701 0.947568 15.6678 1.14855 18.6512 2.25876L 19.3488 0.384338ZM 5.79329 -0.98927C 1.99692 -0.916346 -1 2.15186 -1 5.94129L 1 5.94129C 1 3.23811 3.12808 1.06229 5.8317 1.01036L 5.79329 -0.98927ZM -0.999987 5.94645L -0.937486 18.0576L 1.06249 18.0473L 0.999986 5.93612L -0.999987 5.94645ZM 0.062501 19.0525C 0.187501 19.0525 0.312501 19.0525 0.375001 19.0525L 0.375001 17.0525C 0.312501 17.0525 0.187501 17.0525 0.062501 17.0525L 0.062501 19.0525ZM 0.375001 19.0525C 13.5738 19.0525 24.25 29.7182 24.25 42.8992L 26.25 42.8992C 26.25 28.6115 14.6762 17.0525 0.375001 17.0525L 0.375001 19.0525ZM 24.25 42.8992C 24.25 56.0177 13.5738 66.6834 0.4375 66.6834L 0.4375 68.6834C 14.6762 68.6834 26.25 57.1244 26.25 42.8992L 24.25 42.8992ZM -0.562469 67.6913L -0.437468 83.4858L 1.56247 83.47L 1.43747 67.6755L -0.562469 67.6913ZM -0.4375 83.4779C -0.4375 85.8076 1.40058 87.8102 3.74378 87.9716L 3.88123 85.9763C 2.59943 85.888 1.5625 84.7691 1.5625 83.4779L -0.4375 83.4779ZM 3.74228 87.9715L 36.5548 90.2813L 36.6952 88.2863L 3.88272 85.9764L 3.74228 87.9715ZM 36.5586 90.2816C 39.0435 90.4471 41.1179 88.3715 40.8703 85.8162L 38.8797 86.0091C 39.0071 87.3244 37.9565 88.3702 36.6914 88.286L 36.5586 90.2816ZM 40.8708 85.8208C 40.2143 78.7012 38.6043 62.2134 36.9554 46.5945C 35.3113 31.0203 33.6171 16.1904 32.7886 12.4664L 30.8364 12.9008C 31.6329 16.481 33.3137 31.1487 34.9665 46.8045C 36.6145 62.4156 38.2232 78.8903 38.8792 86.0045L 40.8708 85.8208Z"/>
<path id="path4_fill" d="M 3.75 0.126902L 8 1.50033C 9.1875 1.87491 10 2.99863 10 4.24721L 10 143.713C 10 145.024 9.0625 146.21 7.8125 146.46L 4.0625 147.334C 2.25 147.771 0.5625 146.398 0.5625 144.587L -1.19209e-07 2.87378C 0.0624999 0.938483 1.9375 -0.434957 3.75 0.126902Z"/>
<path id="path5_stroke" d="M 3.75 0.126902L 3.90376 -0.348905L 3.89805 -0.350678L 3.75 0.126902ZM 8 1.50033L 7.84625 1.97612L 7.84959 1.97718L 8 1.50033ZM 7.8125 146.46L 7.71455 145.97L 7.70675 145.971L 7.69901 145.973L 7.8125 146.46ZM 4.0625 147.334L 3.94901 146.847L 3.94531 146.848L 4.0625 147.334ZM 0.5625 144.587L 1.0625 144.587L 1.0625 144.585L 0.5625 144.587ZM -1.19209e-07 2.87378L -0.49974 2.85764L -0.500032 2.8667L -0.499996 2.87576L -1.19209e-07 2.87378ZM 3.59625 0.602676L 7.84625 1.97611L 8.15375 1.02456L 3.90375 -0.348871L 3.59625 0.602676ZM 7.84959 1.97718C 8.82566 2.28506 9.5 3.21331 9.5 4.24721L 10.5 4.24721C 10.5 2.78395 9.54934 1.46476 8.15041 1.02349L 7.84959 1.97718ZM 9.5 4.24721L 9.5 143.713L 10.5 143.713L 10.5 4.24721L 9.5 4.24721ZM 9.5 143.713C 9.5 144.799 8.71789 145.769 7.71455 145.97L 7.91045 146.95C 9.40711 146.651 10.5 145.249 10.5 143.713L 9.5 143.713ZM 7.69901 145.973L 3.94901 146.847L 4.17599 147.821L 7.92599 146.947L 7.69901 145.973ZM 3.94531 146.848C 2.45167 147.208 1.0625 146.079 1.0625 144.587L 0.0625003 144.587C 0.0625003 146.717 2.04833 148.334 4.1797 147.82L 3.94531 146.848ZM 1.0625 144.585L 0.499996 2.87179L -0.499996 2.87576L 0.0625042 144.589L 1.0625 144.585ZM 0.499739 2.88992C 0.552057 1.26993 2.11861 0.144659 3.60196 0.604482L 3.89805 -0.350678C 1.75639 -1.01457 -0.427057 0.607039 -0.49974 2.85764L 0.499739 2.88992Z"/>
<path id="path6_fill" d="M 20.75 41.4528C 32.2099 41.4528 41.5 32.1732 41.5 20.7264C 41.5 9.27951 32.2099 3.81035e-06 20.75 3.81035e-06C 9.29009 3.81035e-06 0 9.27951 0 20.7264C 0 32.1732 9.29009 41.4528 20.75 41.4528Z"/>
<path id="path7_stroke" d="M 41 20.7264C 41 31.8966 31.9343 40.9528 20.75 40.9528L 20.75 41.9528C 32.4855 41.9528 42 32.4499 42 20.7264L 41 20.7264ZM 20.75 40.9528C 9.5657 40.9528 0.5 31.8966 0.5 20.7264L -0.5 20.7264C -0.5 32.4499 9.01449 41.9528 20.75 41.9528L 20.75 40.9528ZM 0.5 20.7264C 0.5 9.55619 9.5657 0.500004 20.75 0.500004L 20.75 -0.499996C 9.01449 -0.499996 -0.5 9.00283 -0.5 20.7264L 0.5 20.7264ZM 20.75 0.500004C 31.9343 0.500004 41 9.55619 41 20.7264L 42 20.7264C 42 9.00283 32.4855 -0.499996 20.75 -0.499996L 20.75 0.500004Z"/>
<path id="path8_fill" d="M 4.3125 0.0129281L 34.75 1.94822C 37.3125 2.1355 39.375 4.25809 39.375 6.81767L 39.9375 55.5746C 39.9375 57.385 38.375 58.8209 36.5625 58.5712L 5.3125 54.6382C 2.25 54.2636 -4.76837e-07 51.704 -4.76837e-07 48.645L -4.76837e-07 4.00837C -4.76837e-07 1.6985 1.9375 -0.174358 4.3125 0.0129281Z"/>
<path id="path9_stroke" d="M 4.3125 0.0129281L 4.23389 1.00983L 4.24146 1.01043L 4.24905 1.01091L 4.3125 0.0129281ZM 34.75 1.94822L 34.8229 0.950832L 34.8134 0.950232L 34.75 1.94822ZM 39.375 6.81767L 38.3749 6.81767L 38.3751 6.8292L 39.375 6.81767ZM 39.9375 55.5746L 40.9376 55.5746L 40.9374 55.5631L 39.9375 55.5746ZM 36.5625 58.5712L 36.699 57.5805L 36.6874 57.579L 36.5625 58.5712ZM 5.3125 54.6382L 5.43737 53.646L 5.4339 53.6456L 5.3125 54.6382ZM -4.76837e-07 4.00837L 1 4.00837L -4.76837e-07 4.00837ZM 4.24905 1.01091L 34.6865 2.9462L 34.8134 0.950232L 4.37595 -0.985057L 4.24905 1.01091ZM 34.6771 2.94556C 36.743 3.09655 38.375 4.80778 38.375 6.81767L 40.375 6.81767C 40.375 3.70839 37.882 1.17446 34.8229 0.950877L 34.6771 2.94556ZM 38.3751 6.8292L 38.9376 55.5861L 40.9374 55.5631L 40.3749 6.80613L 38.3751 6.8292ZM 38.9375 55.5746C 38.9375 56.8083 37.8814 57.7435 36.699 57.5805L 36.426 59.5618C 38.8686 59.8983 40.9375 57.9617 40.9375 55.5746L 38.9375 55.5746ZM 36.6874 57.579L 5.43737 53.646L 5.18763 55.6303L 36.4376 59.5634L 36.6874 57.579ZM 5.4339 53.6456C 2.87391 53.3324 1 51.1996 1 48.645L -1 48.645C -1 52.2084 1.62609 55.1947 5.19109 55.6308L 5.4339 53.6456ZM 1 48.645L 1 4.00837L -1 4.00837L -1 48.645L 1 48.645ZM 1 4.00837C 1 2.26628 2.45569 0.869609 4.23389 1.00983L 4.39111 -0.983977C 1.41931 -1.21833 -1 1.13073 -1 4.00837L 1 4.00837Z"/>
<path id="path10_fill" d="M 3.875 0.0262797L 36.625 4.14659C 38.625 4.3963 40.0625 6.08187 40.0625 8.0796L 40.0625 57.5857C 40.0625 59.3337 38.1875 60.5198 36.625 59.7083L 26 54.4018C 24.1875 53.4654 22.625 52.0295 21.625 50.2191L 20 47.2849C 18.8125 45.1623 16.8125 43.5392 14.5 42.79L 7.25 40.5426C 2.9375 39.2316 0 35.2361 0 30.7413L 0 3.39743C 0.125 1.33728 1.875 -0.223436 3.875 0.0262797Z"/>
<path id="path11_stroke" d="M 3.875 0.0262797L 3.93741 -0.46981L 3.93695 -0.469868L 3.875 0.0262797ZM 36.625 4.14659L 36.5626 4.64268L 36.5631 4.64273L 36.625 4.14659ZM 36.625 59.7083L 36.8555 59.2645L 36.8484 59.2609L 36.625 59.7083ZM 26 54.4018L 25.7705 54.8461L 25.7766 54.8491L 26 54.4018ZM 21.625 50.2191L 22.0627 49.9773L 22.0624 49.9768L 21.625 50.2191ZM 20 47.2849L 20.4374 47.0427L 20.4364 47.0408L 20 47.2849ZM 14.5 42.79L 14.6541 42.3143L 14.648 42.3125L 14.5 42.79ZM 7.25 40.5426L 7.39805 40.065L 7.39543 40.0642L 7.25 40.5426ZM 0 3.39743L -0.499082 3.36715L -0.5 3.38228L -0.5 3.39743L 0 3.39743ZM 3.81259 0.522369L 36.5626 4.64268L 36.6874 3.6505L 3.93741 -0.46981L 3.81259 0.522369ZM 36.5631 4.64273C 38.3052 4.86026 39.5625 6.32635 39.5625 8.0796L 40.5625 8.0796C 40.5625 5.8374 38.9448 3.93235 36.6869 3.65044L 36.5631 4.64273ZM 39.5625 8.0796L 39.5625 57.5857L 40.5625 57.5857L 40.5625 8.0796L 39.5625 8.0796ZM 39.5625 57.5857C 39.5625 58.973 38.0724 59.8966 36.8555 59.2645L 36.3945 60.152C 38.3026 61.143 40.5625 59.6943 40.5625 57.5857L 39.5625 57.5857ZM 36.8484 59.2609L 26.2234 53.9545L 25.7766 54.8491L 36.4016 60.1556L 36.8484 59.2609ZM 26.2295 53.9576C 24.4739 53.0556 23.0181 51.7205 22.0627 49.9773L 21.1873 50.4608C 22.2319 52.3385 23.9011 53.8752 25.7705 54.846L 26.2295 53.9576ZM 22.0624 49.9768L 20.4374 47.0427L 19.5626 47.5271L 21.1876 50.4613L 22.0624 49.9768ZM 20.4364 47.0408C 19.1951 44.8404 17.0511 43.0998 14.6541 42.3144L 14.3459 43.2657C 16.5739 43.9786 18.4299 45.4843 19.5636 47.529L 20.4364 47.0408ZM 14.648 42.3125L 7.39805 40.065L 7.10196 41.0202L 14.352 43.2676L 14.648 42.3125ZM 7.39543 40.0642C 3.29497 38.8177 0.5 35.0175 0.5 30.7413L -0.5 30.7413C -0.5 35.4548 2.58003 39.6455 7.10457 41.021L 7.39543 40.0642ZM 0.5 30.7413L 0.5 3.39743L -0.5 3.39743L -0.5 30.7413L 0.5 30.7413ZM 0.499082 3.42771C 0.608204 1.62925 2.1251 0.311673 3.81305 0.522427L 3.93695 -0.469868C 1.6249 -0.758545 -0.358204 1.04531 -0.499082 3.36715L 0.499082 3.42771Z"/>
<path id="path12_fill" d="M 39.7184 64.5847L 39.1559 25.8164C 39.1559 24.443 38.4058 23.132 37.1558 22.5077L 20.9058 13.3931C 19.6558 12.7064 18.6559 11.7075 17.9059 10.5838L 15.1559 6.40103C 14.1559 4.90274 12.7184 3.7166 10.9684 3.09231L 2.40585 0.0957361C 1.09335 -0.341266 -0.219148 0.782446 0.0308518 2.15588L 2.78085 16.3272C 3.15585 16.3272 3.46835 16.3272 3.84335 16.3272C 17.9684 16.3272 29.4059 27.7517 29.4059 41.8606C 29.4059 52.973 22.2809 62.3997 12.3434 65.9582L 14.7809 78.6312C 15.2184 81.0035 17.7184 82.4394 20.0309 81.6278C 23.2184 80.4416 27.7809 78.7561 32.3433 76.9456C 40.7183 73.512 39.7184 64.5847 39.7184 64.5847Z"/>
<path id="path13_stroke" d="M 39.7184 64.5847L 39.2184 64.592L 39.2188 64.6162L 39.2215 64.6404L 39.7184 64.5847ZM 39.1559 25.8164L 38.6558 25.8164L 38.6559 25.8237L 39.1559 25.8164ZM 37.1558 22.5077L 36.9112 22.9438L 36.9217 22.9496L 36.9324 22.955L 37.1558 22.5077ZM 20.9058 13.3931L 21.1505 12.957L 21.1466 12.9548L 20.9058 13.3931ZM 17.9059 10.5838L 17.4881 10.8585L 17.49 10.8613L 17.9059 10.5838ZM 15.1559 6.40103L 15.5737 6.12634L 15.5717 6.12347L 15.1559 6.40103ZM 10.9684 3.09231L 11.1364 2.62137L 11.1335 2.62038L 10.9684 3.09231ZM 2.40585 0.0957361L 2.57103 -0.376253L 2.5638 -0.37866L 2.40585 0.0957361ZM 0.0308518 2.15588L -0.461098 2.24543L -0.459992 2.25113L 0.0308518 2.15588ZM 2.78085 16.3272L 2.29001 16.4225L 2.36855 16.8272L 2.78085 16.8272L 2.78085 16.3272ZM 12.3434 65.9582L 12.1748 65.4874L 11.7714 65.6319L 11.8524 66.0526L 12.3434 65.9582ZM 14.7809 78.6312L 15.2726 78.5405L 15.2719 78.5368L 14.7809 78.6312ZM 20.0309 81.6278L 20.1965 82.0997L 20.2052 82.0964L 20.0309 81.6278ZM 32.3433 76.9456L 32.5278 77.4104L 32.533 77.4082L 32.3433 76.9456ZM 40.2183 64.5775L 39.6558 25.8092L 38.6559 25.8237L 39.2184 64.592L 40.2183 64.5775ZM 39.6559 25.8164C 39.6559 24.2669 38.8104 22.7751 37.3793 22.0604L 36.9324 22.955C 38.0013 23.4888 38.6559 24.619 38.6559 25.8164L 39.6559 25.8164ZM 37.4004 22.0716L 21.1504 12.957L 20.6612 13.8292L 36.9112 22.9438L 37.4004 22.0716ZM 21.1466 12.9548C 19.9559 12.3064 19.0423 11.3903 18.3217 10.3062L 17.49 10.8613C 18.2694 12.0247 19.3558 13.1063 20.6651 13.8313L 21.1466 12.9548ZM 18.3236 10.3091L 15.5736 6.12635L 14.7381 6.67572L 17.4881 10.8585L 18.3236 10.3091ZM 15.5717 6.12347C 14.5269 4.56755 12.9652 3.28177 11.1363 2.62138L 10.8004 3.56324C 12.4715 4.15143 13.7848 5.23793 14.74 6.6786L 15.5717 6.12347ZM 11.1335 2.62038L 2.57101 -0.376198L 2.24069 0.56767L 10.8032 3.56425L 11.1335 2.62038ZM 2.5638 -0.37866C 0.893856 -0.934675 -0.779699 0.494933 -0.461065 2.24542L 0.522769 2.06634C 0.341402 1.06996 1.29285 0.252143 2.2479 0.570132L 2.5638 -0.37866ZM -0.459992 2.25113L 2.29001 16.4225L 3.2717 16.232L 0.521695 2.06063L -0.459992 2.25113ZM 2.78085 16.8272C 3.15585 16.8272 3.46835 16.8272 3.84335 16.8272L 3.84335 15.8272C 3.46835 15.8272 3.15585 15.8272 2.78085 15.8272L 2.78085 16.8272ZM 3.84335 16.8272C 17.6927 16.8272 28.9059 28.0284 28.9059 41.8606L 29.9059 41.8606C 29.9059 27.475 18.244 15.8272 3.84335 15.8272L 3.84335 16.8272ZM 28.9059 41.8606C 28.9059 52.7525 21.9224 61.997 12.1748 65.4874L 12.5119 66.4289C 22.6393 62.8025 29.9059 53.1934 29.9059 41.8606L 28.9059 41.8606ZM 11.8524 66.0526L 14.2899 78.7256L 15.2719 78.5368L 12.8344 65.8637L 11.8524 66.0526ZM 14.2891 78.7219C 14.7834 81.402 17.6 83.0108 20.1964 82.0996L 19.8653 81.156C 17.8367 81.8679 15.6533 80.605 15.2726 78.5405L 14.2891 78.7219ZM 20.2052 82.0964C 23.3922 80.9104 27.9597 79.223 32.5278 77.4104L 32.1589 76.4809C 27.602 78.2891 23.0445 79.9728 19.8565 81.1592L 20.2052 82.0964ZM 32.533 77.4082C 36.8918 75.6212 38.8211 72.3904 39.6505 69.621C 40.0598 68.2469 40.2052 66.9621 40.2433 66.0541C 40.2623 65.594 40.2557 65.2105 40.2445 64.9531C 40.2387 64.8217 40.2315 64.7152 40.226 64.6461C 40.2231 64.6102 40.2204 64.5808 40.2187 64.5625C 40.2177 64.5527 40.2169 64.5443 40.2164 64.5394C 40.2161 64.5366 40.2158 64.534 40.2156 64.5326C 40.2155 64.5317 40.2154 64.5308 40.2154 64.5304C 40.2154 64.5301 40.2153 64.5298 40.2153 64.5296C 40.2153 64.5293 40.2152 64.5291 39.7184 64.5847C 39.2215 64.6404 39.2214 64.6402 39.2214 64.64C 39.2214 64.64 39.2214 64.6399 39.2214 64.6398C 39.2214 64.6397 39.2214 64.6399 39.2214 64.6401C 39.2215 64.6409 39.2216 64.6415 39.2217 64.643C 39.2221 64.6467 39.2226 64.6512 39.2233 64.6584C 39.2248 64.674 39.2267 64.6952 39.2291 64.7255C 39.2342 64.7889 39.2403 64.8776 39.2454 64.9969C 39.2562 65.2412 39.2623 65.5819 39.2442 66.0124C 39.2081 66.8856 39.08 68.0472 38.6925 69.3341C 37.9281 71.8868 36.1699 74.8364 32.1537 76.483L 32.533 77.4082Z"/>
<path id="path14_fill" d="M 1.90735e-06 1.01946L 0.125 0.332742C 2.5625 -0.728549 4.125 0.894602 5.375 3.14204C 5.375 3.14204 11.0625 10.1341 16.0625 24.68C 21.0625 39.2259 21.6875 48.84 21.6875 48.84C 22.0625 50.4007 21.375 51.8365 19.8125 51.5868L 4.25 49.1521C 2.5 48.9024 1.25 47.4041 1.1875 45.6561L 1.90735e-06 1.01946Z"/>
<path id="path15_stroke" d="M 1.90735e-06 1.01946L -0.491915 0.929923L -0.5012 0.980932L -0.499821 1.03276L 1.90735e-06 1.01946ZM 0.125 0.332742L -0.0746015 -0.125689L -0.319152 -0.0192117L -0.366917 0.243202L 0.125 0.332742ZM 5.375 3.14204L 4.93804 3.38507L 4.95939 3.42347L 4.98712 3.45755L 5.375 3.14204ZM 21.6875 48.84L 21.1886 48.8724L 21.1913 48.9151L 21.2013 48.9568L 21.6875 48.84ZM 19.8125 51.5868L 19.8914 51.0931L 19.8898 51.0928L 19.8125 51.5868ZM 4.25 49.1521L 4.32729 48.6581L 4.32063 48.6571L 4.25 49.1521ZM 1.1875 45.6561L 0.687654 45.6694L 0.687817 45.6739L 1.1875 45.6561ZM 0.491919 1.109L 0.616917 0.422281L -0.366917 0.243202L -0.491915 0.929923L 0.491919 1.109ZM 0.324602 0.791173C 1.39523 0.325021 2.21721 0.456749 2.92263 0.915718C 3.66837 1.40092 4.32282 2.27895 4.93804 3.38507L 5.81196 2.89901C 5.17718 1.75769 4.42538 0.700429 3.46799 0.0775173C 2.47029 -0.571626 1.29227 -0.720827 -0.0746015 -0.125689L 0.324602 0.791173ZM 5.375 3.14204C 4.98712 3.45755 4.98705 3.45747 4.987 3.45741C 4.98702 3.45743 4.98699 3.45739 4.98702 3.45743C 4.98713 3.45757 4.98721 3.45766 4.98743 3.45794C 4.988 3.45864 4.98868 3.45948 4.98981 3.46088C 4.99232 3.464 4.99571 3.46822 5.00069 3.47445C 5.01112 3.48752 5.02594 3.5062 5.04641 3.53236C 5.08832 3.58588 5.14895 3.66431 5.22966 3.77157C 5.393 3.98857 5.62889 4.31052 5.93074 4.74648C 6.53821 5.62361 7.39396 6.93437 8.4101 8.70519C 10.4497 12.2582 13.1012 17.5998 15.5897 24.8425L 16.5353 24.5175C 14.0238 17.2142 11.3316 11.7869 9.2774 8.2074C 8.24666 6.41197 7.36804 5.0656 6.75286 4.17717C 6.44338 3.73034 6.19586 3.3924 6.02864 3.17021C 5.94407 3.05787 5.87762 2.97188 5.83378 2.91587C 5.81137 2.88726 5.79365 2.86491 5.78225 2.85063C 5.77631 2.84319 5.77147 2.83716 5.76847 2.83344C 5.76685 2.83143 5.76546 2.8297 5.76464 2.8287C 5.76418 2.82812 5.76374 2.82758 5.7635 2.82729C 5.76336 2.82711 5.7632 2.82692 5.76313 2.82683C 5.76299 2.82667 5.76288 2.82653 5.375 3.14204ZM 15.5897 24.8425C 18.082 32.0911 19.4793 38.0951 20.2583 42.3057C 20.6472 44.4061 20.8793 46.047 21.0153 47.1706C 21.0831 47.7301 21.1264 48.1554 21.153 48.4443C 21.1662 48.5877 21.1751 48.6947 21.1808 48.7675C 21.1836 48.8034 21.1855 48.8296 21.1868 48.8477C 21.1875 48.8564 21.1879 48.8626 21.1882 48.867C 21.1883 48.8691 21.1884 48.8704 21.1885 48.8714C 21.1885 48.8719 21.1885 48.8721 21.1885 48.8724C 21.1886 48.8724 21.1886 48.8724 21.1886 48.8725C 21.1886 48.8725 21.1886 48.8724 21.6875 48.84C 22.1864 48.8075 22.1864 48.8074 22.1864 48.8072C 22.1864 48.8071 22.1864 48.8069 22.1864 48.8067C 22.1864 48.8063 22.1863 48.8057 22.1863 48.8049C 22.1862 48.8036 22.186 48.8015 22.1859 48.7989C 22.1855 48.7939 22.185 48.7861 22.1843 48.7762C 22.1829 48.757 22.1807 48.7275 22.1777 48.6894C 22.1718 48.6143 22.1624 48.5005 22.1488 48.3525C 22.1217 48.0589 22.077 47.6194 22.0081 47.0503C 21.8707 45.9168 21.6341 44.245 21.2416 42.1237C 20.4582 37.8907 19.043 31.8148 16.5353 24.5175L 15.5897 24.8425ZM 21.2013 48.9568C 21.3676 49.6486 21.2822 50.2524 21.0502 50.6311C 20.8409 50.9728 20.4827 51.1876 19.8914 51.0931L 19.7336 52.0806C 20.7048 52.2358 21.4716 51.8575 21.9029 51.1535C 22.3116 50.4865 22.3824 49.592 22.1737 48.7231L 21.2013 48.9568ZM 19.8898 51.0928L 4.32728 48.6581L 4.17271 49.6461L 19.7352 52.0808L 19.8898 51.0928ZM 4.32063 48.6571C 2.82741 48.444 1.74166 47.162 1.68718 45.6382L 0.687817 45.6739C 0.758335 47.6462 2.17259 49.3607 4.17937 49.6471L 4.32063 48.6571ZM 1.68732 45.6428L 0.499825 1.00617L -0.499821 1.03276L 0.687675 45.6694L 1.68732 45.6428Z"/>
<path id="path16_fill" d="M 1.90735e-06 2.20652C 1.90735e-06 0.895511 1.1875 -0.165779 2.5 0.0215075L 17.5 2.08167C 19.5 2.39382 20.875 4.14182 20.75 6.07711C 20.1875 14.2553 18.1875 34.6695 13.25 42.2858C 9.75 47.6547 6.25 51.2756 3.8125 53.3357C 2.5625 54.4595 0.624998 53.5855 0.562498 51.8999L 1.90735e-06 2.20652Z"/>
<path id="path17_stroke" d="M 1.90735e-06 2.20652L -0.50003 2.20652L -0.499966 2.21218L 1.90735e-06 2.20652ZM 2.5 0.0215075L 2.42937 0.5165L 2.43197 0.516857L 2.5 0.0215075ZM 17.5 2.08167L 17.5771 1.58757L 17.568 1.58632L 17.5 2.08167ZM 20.75 6.07711L 21.2488 6.11142L 21.249 6.10934L 20.75 6.07711ZM 13.25 42.2858L 13.6689 42.5589L 13.6696 42.5578L 13.25 42.2858ZM 3.8125 53.3357L 3.48974 52.9539L 3.48391 52.9588L 3.47823 52.9639L 3.8125 53.3357ZM 0.562498 51.8999L 0.0623644 51.9055L 0.0628414 51.9184L 0.562498 51.8999ZM 0.500002 2.20652C 0.500002 1.19228 1.42542 0.373235 2.42937 0.516493L 2.57063 -0.473478C 0.949589 -0.704793 -0.499998 0.598744 -0.499998 2.20652L 0.500002 2.20652ZM 2.43197 0.516857L 17.432 2.57702L 17.568 1.58632L 2.56804 -0.473842L 2.43197 0.516857ZM 17.4229 2.57569C 19.1693 2.84825 20.3592 4.36971 20.251 6.04489L 21.249 6.10934C 21.3908 3.91393 19.8307 1.93938 17.5771 1.58765L 17.4229 2.57569ZM 20.2512 6.0428C 19.9703 10.1267 19.3322 17.2506 18.1475 24.3094C 16.9587 31.3953 15.2355 38.3039 12.8304 42.0139L 13.6696 42.5578C 16.202 38.6514 17.9476 31.5448 19.1337 24.4749C 20.324 17.378 20.9672 10.2057 21.2488 6.11142L 20.2512 6.0428ZM 12.8311 42.0128C 9.35905 47.343 5.90844 50.9104 3.48974 52.9539L 4.13526 53.7176C 6.59156 51.6407 10.141 47.9664 13.6689 42.5589L 12.8311 42.0128ZM 3.47823 52.9639C 2.56472 53.7851 1.11001 53.1719 1.06215 51.8814L 0.0628414 51.9184C 0.13999 53.999 2.56028 55.1338 4.14677 53.7076L 3.47823 52.9639ZM 1.06247 51.8942L 0.49997 2.20086L -0.499966 2.21218L 0.0625301 51.9055L 1.06247 51.8942Z"/>
<path id="path18_fill" d="M 2.5 12.3609C 1.125 12.3609 1.90735e-06 11.2372 1.90735e-06 9.86376L 1.90735e-06 2.49715C 1.90735e-06 1.12372 1.125 0 2.5 0C 3.875 0 5 1.12372 5 2.49715L 5 9.80133C 5 11.1748 3.875 12.3609 2.5 12.3609Z"/>
<path id="path19_stroke" d="M 2.5 11.8609C 1.4006 11.8609 0.500002 10.9605 0.500002 9.86376L -0.499998 9.86376C -0.499998 11.5139 0.849399 12.8609 2.5 12.8609L 2.5 11.8609ZM 0.500002 9.86376L 0.500002 2.49715L -0.499998 2.49715L -0.499998 9.86376L 0.500002 9.86376ZM 0.500002 2.49715C 0.500002 1.4004 1.40061 0.5 2.5 0.5L 2.5 -0.5C 0.849397 -0.5 -0.499998 0.84704 -0.499998 2.49715L 0.500002 2.49715ZM 2.5 0.5C 3.5994 0.5 4.5 1.4004 4.5 2.49715L 5.5 2.49715C 5.5 0.84704 4.15061 -0.5 2.5 -0.5L 2.5 0.5ZM 4.5 2.49715L 4.5 9.80133L 5.5 9.80133L 5.5 2.49715L 4.5 2.49715ZM 4.5 9.80133C 4.5 10.9142 3.58355 11.8609 2.5 11.8609L 2.5 12.8609C 4.16646 12.8609 5.5 11.4353 5.5 9.80133L 4.5 9.80133Z"/>
<path id="path20_fill" d="M 2.5 12.3609C 1.125 12.3609 1.90735e-06 11.2372 1.90735e-06 9.86375L 1.90735e-06 2.49715C 1.90735e-06 1.12372 1.125 0 2.5 0C 3.875 0 5 1.12372 5 2.49715L 5 9.80134C 5 11.1748 3.875 12.3609 2.5 12.3609Z"/>
<path id="path21_stroke" d="M 2.5 11.8609C 1.40061 11.8609 0.500002 10.9605 0.500002 9.86375L -0.499998 9.86375C -0.499998 11.5139 0.849397 12.8609 2.5 12.8609L 2.5 11.8609ZM 0.500002 9.86375L 0.500002 2.49715L -0.499998 2.49715L -0.499998 9.86375L 0.500002 9.86375ZM 0.500002 2.49715C 0.500002 1.4004 1.40061 0.5 2.5 0.5L 2.5 -0.5C 0.849397 -0.5 -0.499998 0.84704 -0.499998 2.49715L 0.500002 2.49715ZM 2.5 0.5C 3.5994 0.5 4.5 1.4004 4.5 2.49715L 5.5 2.49715C 5.5 0.84704 4.15061 -0.5 2.5 -0.5L 2.5 0.5ZM 4.5 2.49715L 4.5 9.80134L 5.5 9.80134L 5.5 2.49715L 4.5 2.49715ZM 4.5 9.80134C 4.5 10.9142 3.58355 11.8609 2.5 11.8609L 2.5 12.8609C 4.16646 12.8609 5.5 11.4354 5.5 9.80134L 4.5 9.80134Z"/>
<path id="path22_fill" d="M 20.75 41.4528C 32.2099 41.4528 41.5 32.1732 41.5 20.7264C 41.5 9.27952 32.2099 0 20.75 0C 9.29008 0 3.8147e-06 9.27952 3.8147e-06 20.7264C 3.8147e-06 32.1732 9.29008 41.4528 20.75 41.4528Z"/>
<path id="path23_stroke" d="M 41 20.7264C 41 31.8966 31.9343 40.9528 20.75 40.9528L 20.75 41.9528C 32.4855 41.9528 42 32.4499 42 20.7264L 41 20.7264ZM 20.75 40.9528C 9.56569 40.9528 0.500004 31.8966 0.500004 20.7264L -0.499996 20.7264C -0.499996 32.4499 9.01448 41.9528 20.75 41.9528L 20.75 40.9528ZM 0.500004 20.7264C 0.500004 9.5562 9.56569 0.499999 20.75 0.499999L 20.75 -0.500001C 9.01448 -0.500001 -0.499996 9.00284 -0.499996 20.7264L 0.500004 20.7264ZM 20.75 0.499999C 31.9343 0.499999 41 9.5562 41 20.7264L 42 20.7264C 42 9.00284 32.4855 -0.500001 20.75 -0.500001L 20.75 0.499999Z"/>
<path id="path24_fill" d="M 8.07779 12.6836C 9.39029 6.81529 16.5778 2.88227 20.8903 1.32155C 24.0778 0.135402 29.7653 -0.0518835 34.0778 0.0105453C 37.3278 0.0729742 39.8903 2.69499 39.8903 5.94129L 39.8278 18.0525C 39.7028 18.0525 39.5778 18.0525 39.5153 18.0525C 25.7653 18.0525 14.6403 29.1648 14.6403 42.8992C 14.6403 56.5711 25.7653 67.6834 39.4528 67.6834L 39.3278 83.4779C 39.3278 85.2883 37.8903 86.8491 36.0778 86.9739L 3.2653 89.2838C 1.3903 89.4087 -0.172208 87.8479 0.0152918 85.9126C 1.39029 71.6789 6.45279 19.9878 8.07779 12.6836Z"/>
<path id="path25_stroke" d="M 8.07779 12.6836L 7.58984 12.5745L 7.58972 12.575L 8.07779 12.6836ZM 20.8903 1.32155L 21.0604 1.79173L 21.0647 1.79016L 20.8903 1.32155ZM 34.0778 0.0105453L 34.0874 -0.489368L 34.085 -0.489402L 34.0778 0.0105453ZM 39.8903 5.94129L 40.3903 5.94387L 40.3903 5.94129L 39.8903 5.94129ZM 39.8278 18.0525L 39.8278 18.5525L 40.3252 18.5525L 40.3278 18.0551L 39.8278 18.0525ZM 39.4528 67.6834L 39.9528 67.6874L 39.9568 67.1834L 39.4528 67.1834L 39.4528 67.6834ZM 39.3278 83.4779L 38.8278 83.474L 38.8278 83.4779L 39.3278 83.4779ZM 36.0778 86.9739L 36.0434 86.4751L 36.0427 86.4752L 36.0778 86.9739ZM 3.2653 89.2838L 3.29852 89.7827L 3.30041 89.7826L 3.2653 89.2838ZM 0.0152918 85.9126L 0.512962 85.9609L 0.512975 85.9607L 0.0152918 85.9126ZM 8.56573 12.7927C 9.18522 10.0229 11.2056 7.66355 13.6628 5.7844C 16.1201 3.9018 18.9271 2.56313 21.0604 1.79171L 20.7201 0.851393C 18.541 1.64069 15.598 3.04889 13.0553 4.99006C 10.5125 6.93467 8.28285 9.47596 7.58984 12.5745L 8.56573 12.7927ZM 21.0647 1.79016C 24.1501 0.641977 29.7427 0.447842 34.0706 0.510493L 34.085 -0.489402C 29.7878 -0.551609 24.0054 -0.371173 20.7159 0.852944L 21.0647 1.79016ZM 34.0682 0.510453C 37.045 0.567634 39.3903 2.96655 39.3903 5.94129L 40.3903 5.94129C 40.3903 2.42342 37.6106 -0.421686 34.0874 -0.489362L 34.0682 0.510453ZM 39.3903 5.9387L 39.3278 18.0499L 40.3278 18.0551L 40.3903 5.94387L 39.3903 5.9387ZM 39.8278 17.5525C 39.7028 17.5525 39.5778 17.5525 39.5153 17.5525L 39.5153 18.5525C 39.5778 18.5525 39.7028 18.5525 39.8278 18.5525L 39.8278 17.5525ZM 39.5153 17.5525C 25.4897 17.5525 14.1403 28.8881 14.1403 42.8992L 15.1403 42.8992C 15.1403 29.4415 26.0409 18.5525 39.5153 18.5525L 39.5153 17.5525ZM 14.1403 42.8992C 14.1403 56.8478 25.4897 68.1834 39.4528 68.1834L 39.4528 67.1834C 26.0409 67.1834 15.1403 56.2944 15.1403 42.8992L 14.1403 42.8992ZM 38.9528 67.6795L 38.8278 83.474L 39.8278 83.4819L 39.9528 67.6874L 38.9528 67.6795ZM 38.8278 83.4779C 38.8278 85.0287 37.5906 86.3685 36.0434 86.4751L 36.1122 87.4727C 38.19 87.3296 39.8278 85.548 39.8278 83.4779L 38.8278 83.4779ZM 36.0427 86.4752L 3.23019 88.785L 3.30041 89.7826L 36.1129 87.4727L 36.0427 86.4752ZM 3.23208 88.7849C 1.66207 88.8894 0.355493 87.5862 0.512962 85.9609L -0.482378 85.8644C -0.69991 88.1097 1.11853 89.9279 3.29852 89.7827L 3.23208 88.7849ZM 0.512975 85.9607C 1.20045 78.8441 2.80962 62.365 4.45005 46.7518C 6.09287 31.1158 7.7614 16.4081 8.56586 12.7922L 7.58972 12.575C 6.76918 16.2633 5.09396 31.0532 3.45553 46.6473C 1.81471 62.2641 0.205134 78.7474 -0.482391 85.8646L 0.512975 85.9607Z"/>
<path id="path26_fill" d="M 6.25 0.126902L 2 1.50033C 0.812504 1.87491 -3.8147e-06 2.99863 -3.8147e-06 4.24721L -3.8147e-06 143.713C -3.8147e-06 145.024 0.937496 146.21 2.1875 146.46L 5.9375 147.334C 7.75 147.771 9.4375 146.398 9.4375 144.587L 10 2.87378C 9.9375 0.938483 8.0625 -0.434957 6.25 0.126902Z"/>
<path id="path27_stroke" d="M 6.25 0.126902L 6.10194 -0.350712L 6.09625 -0.348871L 6.25 0.126902ZM 2 1.50033L 2.15042 1.97719L 2.15376 1.97611L 2 1.50033ZM 2.1875 146.46L 2.30099 145.973L 2.29324 145.971L 2.28545 145.97L 2.1875 146.46ZM 5.9375 147.334L 6.05469 146.848L 6.05099 146.847L 5.9375 147.334ZM 9.4375 144.587L 8.9375 144.585L 8.9375 144.587L 9.4375 144.587ZM 10 2.87378L 10.5 2.87576L 10.5 2.8667L 10.4997 2.85764L 10 2.87378ZM 6.09625 -0.348871L 1.84625 1.02456L 2.15376 1.97611L 6.40375 0.602676L 6.09625 -0.348871ZM 1.84959 1.02349C 0.450665 1.46476 -0.500004 2.78395 -0.500004 4.24721L 0.499996 4.24721C 0.499996 3.21332 1.17434 2.28506 2.15041 1.97718L 1.84959 1.02349ZM -0.500004 4.24721L -0.500004 143.713L 0.499996 143.713L 0.499996 4.24721L -0.500004 4.24721ZM -0.500004 143.713C -0.500004 145.249 0.592889 146.651 2.08955 146.95L 2.28545 145.97C 1.2821 145.769 0.499996 144.799 0.499996 143.713L -0.500004 143.713ZM 2.074 146.947L 5.82401 147.821L 6.05099 146.847L 2.30099 145.973L 2.074 146.947ZM 5.8203 147.82C 7.95167 148.334 9.9375 146.717 9.9375 144.587L 8.9375 144.587C 8.9375 146.079 7.54832 147.208 6.05469 146.848L 5.8203 147.82ZM 9.9375 144.589L 10.5 2.87576L 9.5 2.87179L 8.9375 144.585L 9.9375 144.589ZM 10.4997 2.85764C 10.4271 0.607039 8.24361 -1.01457 6.10195 -0.350678L 6.39804 0.604482C 7.88138 0.144659 9.44794 1.26993 9.50026 2.88992L 10.4997 2.85764Z"/>
<path id="path28_fill" d="M 20.75 41.4528C 32.2099 41.4528 41.5 32.1732 41.5 20.7264C 41.5 9.27951 32.2099 3.81035e-06 20.75 3.81035e-06C 9.29008 3.81035e-06 3.8147e-06 9.27951 3.8147e-06 20.7264C 3.8147e-06 32.1732 9.29008 41.4528 20.75 41.4528Z"/>
<path id="path29_stroke" d="M 41 20.7264C 41 31.8965 31.9343 40.9528 20.75 40.9528L 20.75 41.9528C 32.4855 41.9528 42 32.4499 42 20.7264L 41 20.7264ZM 20.75 40.9528C 9.56569 40.9528 0.500004 31.8966 0.500004 20.7264L -0.499996 20.7264C -0.499996 32.4499 9.01448 41.9528 20.75 41.9528L 20.75 40.9528ZM 0.500004 20.7264C 0.500004 9.55619 9.56569 0.500004 20.75 0.500004L 20.75 -0.499996C 9.01448 -0.499996 -0.499996 9.00283 -0.499996 20.7264L 0.500004 20.7264ZM 20.75 0.500004C 31.9343 0.500004 41 9.55619 41 20.7264L 42 20.7264C 42 9.00283 32.4855 -0.499996 20.75 -0.499996L 20.75 0.500004Z"/>
<path id="path30_fill" d="M 35.625 0.0129281L 5.18751 1.94822C 2.62501 2.1355 0.562492 4.25809 0.562492 6.81767L -3.8147e-06 55.5746C -3.8147e-06 57.385 1.56249 58.8209 3.37499 58.5712L 34.625 54.6382C 37.6875 54.2636 39.9375 51.704 39.9375 48.645L 39.9375 4.00837C 39.9375 1.6985 38 -0.174358 35.625 0.0129281Z"/>
<path id="path31_stroke" d="M 35.625 0.0129281L 35.6567 0.511978L 35.6643 0.511381L 35.625 0.0129281ZM 5.18751 1.94822L 5.15578 1.4492L 5.15106 1.44955L 5.18751 1.94822ZM 0.562492 6.81767L 1.06249 6.82344L 1.06249 6.81767L 0.562492 6.81767ZM -3.8147e-06 55.5746L -0.500004 55.5688L -0.500004 55.5746L -3.8147e-06 55.5746ZM 3.37499 58.5712L 3.31255 58.0751L 3.30675 58.0759L 3.37499 58.5712ZM 34.625 54.6382L 34.5643 54.1419L 34.5625 54.1421L 34.625 54.6382ZM 35.5933 -0.486064L 5.15578 1.44922L 5.21923 2.44721L 35.6567 0.511921L 35.5933 -0.486064ZM 5.15106 1.44955C 2.34027 1.65498 0.0624923 3.98324 0.0624923 6.81767L 1.06249 6.81767C 1.06249 4.53293 2.90975 2.61603 5.22395 2.44689L 5.15106 1.44955ZM 0.0625256 6.8119L -0.499971 55.5688L 0.499963 55.5804L 1.06246 6.82344L 0.0625256 6.8119ZM -0.500004 55.5746C -0.500004 57.6734 1.31571 59.3596 3.44323 59.0665L 3.30675 58.0759C 1.80927 58.2822 0.499996 57.0967 0.499996 55.5746L -0.500004 55.5746ZM 3.43743 59.0673L 34.6874 55.1342L 34.5625 54.1421L 3.31256 58.0751L 3.43743 59.0673ZM 34.6857 55.1345C 37.9994 54.7292 40.4375 51.9562 40.4375 48.645L 39.4375 48.645C 39.4375 51.4518 37.3755 53.798 34.5643 54.1419L 34.6857 55.1345ZM 40.4375 48.645L 40.4375 4.00837L 39.4375 4.00837L 39.4375 48.645L 40.4375 48.645ZM 40.4375 4.00837C 40.4375 1.41462 38.2591 -0.696342 35.5857 -0.485524L 35.6643 0.511381C 37.7409 0.347625 39.4375 1.98239 39.4375 4.00837L 40.4375 4.00837Z"/>
<path id="path32_fill" d="M 36.1875 0.0262834L 3.4375 4.14659C 1.4375 4.39631 -3.8147e-06 6.08188 -3.8147e-06 8.0796L -3.8147e-06 57.5857C -3.8147e-06 59.3337 1.875 60.5198 3.4375 59.7083L 14.0625 54.4018C 15.875 53.4654 17.4375 52.0295 18.4375 50.2191L 20.0625 47.2849C 21.25 45.1623 23.25 43.5392 25.5625 42.79L 32.8125 40.5426C 37.125 39.2316 40.0625 35.2361 40.0625 30.7413L 40.0625 3.39744C 39.9375 1.33729 38.1875 -0.223432 36.1875 0.0262834Z"/>
<path id="path33_stroke" d="M 36.1875 0.0262834L 36.1255 -0.469864L 36.1251 -0.469806L 36.1875 0.0262834ZM 3.4375 4.14659L 3.49944 4.64274L 3.49991 4.64268L 3.4375 4.14659ZM 3.4375 59.7083L 3.21407 59.2609L 3.20703 59.2645L 3.4375 59.7083ZM 14.0625 54.4018L 14.2859 54.8492L 14.292 54.846L 14.0625 54.4018ZM 18.4375 50.2191L 18.0001 49.9768L 17.9998 49.9773L 18.4375 50.2191ZM 20.0625 47.2849L 19.6261 47.0408L 19.6251 47.0427L 20.0625 47.2849ZM 25.5625 42.79L 25.4144 42.3124L 25.4084 42.3144L 25.5625 42.79ZM 32.8125 40.5426L 32.6671 40.0642L 32.6645 40.065L 32.8125 40.5426ZM 40.0625 3.39744L 40.5625 3.39744L 40.5625 3.38228L 40.5616 3.36716L 40.0625 3.39744ZM 36.1251 -0.469806L 3.37508 3.6505L 3.49991 4.64268L 36.2499 0.522373L 36.1251 -0.469806ZM 3.37555 3.65044C 1.11772 3.93235 -0.500004 5.83741 -0.500004 8.0796L 0.499996 8.0796C 0.499996 6.32635 1.75727 4.86026 3.49944 4.64274L 3.37555 3.65044ZM -0.500004 8.0796L -0.500004 57.5857L 0.499996 57.5857L 0.499996 8.0796L -0.500004 8.0796ZM -0.500004 57.5857C -0.500004 59.6943 1.75995 61.143 3.66797 60.152L 3.20703 59.2645C 1.99005 59.8966 0.499996 58.973 0.499996 57.5857L -0.500004 57.5857ZM 3.6609 60.1556L 14.2859 54.8491L 13.8391 53.9545L 3.21409 59.2609L 3.6609 60.1556ZM 14.292 54.846C 16.1614 53.8752 17.8306 52.3385 18.8752 50.4608L 17.9998 49.9773C 17.0444 51.7205 15.5885 53.0556 13.833 53.9576L 14.292 54.846ZM 18.8749 50.4613L 20.4999 47.5271L 19.6251 47.0427L 18.0001 49.9768L 18.8749 50.4613ZM 20.4989 47.529C 21.6326 45.4843 23.4886 43.9786 25.7166 43.2657L 25.4084 42.3144C 23.0114 43.0998 20.8674 44.8404 19.6261 47.0408L 20.4989 47.529ZM 25.7105 43.2676L 32.9605 41.0202L 32.6645 40.065L 25.4144 42.3125L 25.7105 43.2676ZM 32.9579 41.021C 37.4825 39.6455 40.5625 35.4548 40.5625 30.7413L 39.5625 30.7413C 39.5625 35.0175 36.7675 38.8177 32.6671 40.0642L 32.9579 41.021ZM 40.5625 30.7413L 40.5625 3.39744L 39.5625 3.39744L 39.5625 30.7413L 40.5625 30.7413ZM 40.5616 3.36716C 40.4207 1.04532 38.4376 -0.758541 36.1255 -0.469864L 36.2494 0.522431C 37.9374 0.311677 39.4543 1.62925 39.5634 3.42772L 40.5616 3.36716Z"/>
<path id="path34_fill" d="M 0.0376049 64.5847L 0.60012 25.8164C 0.60012 24.443 1.35011 23.132 2.60011 22.5077L 18.7876 13.3931C 20.0376 12.7064 21.0376 11.7075 21.7876 10.5838L 24.5376 6.40103C 25.5376 4.90274 26.9751 3.7166 28.7251 3.09231L 37.2876 0.0957361C 38.6001 -0.341266 39.9126 0.782446 39.6626 2.15588L 36.9126 16.3272C 36.5376 16.3272 36.2251 16.3272 35.8501 16.3272C 21.7251 16.3272 10.2876 27.7517 10.2876 41.8606C 10.2876 52.973 17.4126 62.3997 27.3501 65.9582L 24.9126 78.6312C 24.4751 81.0035 21.9751 82.4394 19.6626 81.6278C 16.4751 80.4416 11.9126 78.7561 7.35011 76.9456C -0.962388 73.512 0.0376049 64.5847 0.0376049 64.5847Z"/>
<path id="path35_stroke" d="M 0.0376049 64.5847L 0.534497 64.6404L 0.5372 64.6162L 0.537552 64.592L 0.0376049 64.5847ZM 0.60012 25.8164L 1.10012 25.8237L 1.10012 25.8164L 0.60012 25.8164ZM 2.60011 22.5077L 2.82351 22.955L 2.83461 22.9495L 2.84543 22.9434L 2.60011 22.5077ZM 18.7876 13.3931L 18.5468 12.9548L 18.5423 12.9574L 18.7876 13.3931ZM 21.7876 10.5838L 22.2035 10.8613L 22.2054 10.8585L 21.7876 10.5838ZM 24.5376 6.40103L 24.1217 6.12346L 24.1198 6.12635L 24.5376 6.40103ZM 28.7251 3.09231L 28.56 2.62037L 28.5571 2.62138L 28.7251 3.09231ZM 37.2876 0.0957361L 37.1296 -0.378715L 37.1224 -0.376198L 37.2876 0.0957361ZM 39.6626 2.15588L 40.1535 2.25114L 40.1545 2.24542L 39.6626 2.15588ZM 36.9126 16.3272L 36.9126 16.8272L 37.3249 16.8272L 37.4035 16.4225L 36.9126 16.3272ZM 27.3501 65.9582L 27.8411 66.0526L 27.922 65.6319L 27.5187 65.4874L 27.3501 65.9582ZM 24.9126 78.6312L 24.4216 78.5368L 24.4209 78.5405L 24.9126 78.6312ZM 19.6626 81.6278L 19.4882 82.0965L 19.497 82.0996L 19.6626 81.6278ZM 7.35011 76.9456L 7.15921 77.4078L 7.1657 77.4104L 7.35011 76.9456ZM 0.537552 64.592L 1.10007 25.8237L 0.100173 25.8092L -0.462343 64.5775L 0.537552 64.592ZM 1.10012 25.8164C 1.10012 24.619 1.75468 23.4888 2.82351 22.955L 2.37671 22.0604C 0.945535 22.7751 0.10012 24.2669 0.10012 25.8164L 1.10012 25.8164ZM 2.84543 22.9434L 19.0329 13.8288L 18.5423 12.9574L 2.35479 22.072L 2.84543 22.9434ZM 19.0284 13.8313C 20.3376 13.1063 21.4241 12.0247 22.2035 10.8613L 21.3717 10.3062C 20.6511 11.3903 19.7376 12.3064 18.5469 12.9548L 19.0284 13.8313ZM 22.2054 10.8585L 24.9554 6.67572L 24.1198 6.12635L 21.3698 10.3091L 22.2054 10.8585ZM 24.9535 6.6786C 25.9086 5.23793 27.2219 4.15143 28.8931 3.56324L 28.5571 2.62138C 26.7283 3.28177 25.1666 4.56755 24.1217 6.12347L 24.9535 6.6786ZM 28.8903 3.56425L 37.4528 0.56767L 37.1224 -0.376198L 28.56 2.62038L 28.8903 3.56425ZM 37.4456 0.570132C 38.4006 0.252142 39.3521 1.06996 39.1707 2.06634L 40.1545 2.24542C 40.4732 0.494929 38.7996 -0.934673 37.1297 -0.37866L 37.4456 0.570132ZM 39.1718 2.06063L 36.4218 16.232L 37.4035 16.4225L 40.1535 2.25113L 39.1718 2.06063ZM 36.9126 15.8272C 36.5376 15.8272 36.2251 15.8272 35.8501 15.8272L 35.8501 16.8272C 36.2251 16.8272 36.5376 16.8272 36.9126 16.8272L 36.9126 15.8272ZM 35.8501 15.8272C 21.4495 15.8272 9.78762 27.475 9.78762 41.8606L 10.7876 41.8606C 10.7876 28.0284 22.0007 16.8272 35.8501 16.8272L 35.8501 15.8272ZM 9.78762 41.8606C 9.78762 53.1934 17.0542 62.8025 27.1816 66.4289L 27.5187 65.4874C 17.771 61.997 10.7876 52.7525 10.7876 41.8606L 9.78762 41.8606ZM 26.8591 65.8637L 24.4216 78.5368L 25.4036 78.7256L 27.8411 66.0526L 26.8591 65.8637ZM 24.4209 78.5405C 24.0402 80.605 21.8568 81.8679 19.8282 81.156L 19.497 82.0996C 22.0934 83.0108 24.9101 81.402 25.4043 78.7219L 24.4209 78.5405ZM 19.837 81.1592C 16.6489 79.9728 12.0915 78.2891 7.53453 76.4809L 7.1657 77.4104C 11.7338 79.223 16.3013 80.9104 19.4882 82.0964L 19.837 81.1592ZM 7.541 76.4835C 3.55665 74.8377 1.81324 71.889 1.05604 69.3354C 0.672271 68.0482 0.545961 66.8863 0.510828 66.013C 0.493141 65.5824 0.49952 65.2414 0.510382 64.9971C 0.515633 64.8778 0.521738 64.789 0.526813 64.7257C 0.529235 64.6953 0.531171 64.6741 0.532683 64.6584C 0.533374 64.6512 0.533832 64.6467 0.534214 64.6431C 0.534371 64.6416 0.534443 64.6409 0.534526 64.6401C 0.53455 64.6399 0.534569 64.6397 0.534556 64.6398C 0.534554 64.6399 0.534539 64.64 0.534538 64.64C 0.53452 64.6402 0.534497 64.6404 0.0376049 64.5847C -0.459288 64.5291 -0.459317 64.5293 -0.459351 64.5296C -0.459367 64.5298 -0.459405 64.5301 -0.459437 64.5304C -0.459484 64.5308 -0.45958 64.5317 -0.459673 64.5326C -0.459824 64.534 -0.460099 64.5365 -0.46039 64.5393C -0.460906 64.5443 -0.461756 64.5527 -0.462703 64.5625C -0.464468 64.5808 -0.467132 64.6101 -0.470006 64.646C -0.475519 64.715 -0.482781 64.8215 -0.488639 64.9529C -0.499993 65.2102 -0.506797 65.5936 -0.48835 66.0535C -0.451217 66.9614 -0.307994 68.2459 0.097302 69.6197C 0.918229 72.3882 2.83107 75.6199 7.15922 77.4077L 7.541 76.4835Z"/>
<path id="path36_fill" d="M 100.314 17.9171C 100.251 14.7332 98.3761 11.8615 95.5011 10.4256C 87.7511 6.67989 71.1261 0 51.0636 0C 31.0011 0 14.3761 6.67989 6.62615 10.4256C 3.75115 11.7991 1.87615 14.7332 1.81365 17.9171L 0.00114845 84.5286C -0.0613515 86.9634 2.43865 88.7114 4.68865 87.775C 12.6261 84.4662 29.7511 78.6603 51.0011 78.6603C 72.2511 78.6603 89.4386 84.4662 97.3761 87.7125C 99.6261 88.649 102.126 86.9009 102.064 84.4662L 100.314 17.9171Z"/>
<path id="path37_stroke" d="M 100.314 17.9171L 99.8137 17.9269L 99.8138 17.9302L 100.314 17.9171ZM 95.5011 10.4256L 95.7246 9.97826L 95.7187 9.97544L 95.5011 10.4256ZM 6.62615 10.4256L 6.84168 10.8768L 6.84373 10.8758L 6.62615 10.4256ZM 1.81365 17.9171L 2.31348 17.9307L 2.31355 17.9269L 1.81365 17.9171ZM 0.00114845 84.5286L -0.498667 84.515L -0.498687 84.5158L 0.00114845 84.5286ZM 4.68865 87.775L 4.88077 88.2366L 4.88103 88.2365L 4.68865 87.775ZM 97.3761 87.7125L 97.5683 87.2509L 97.5654 87.2497L 97.3761 87.7125ZM 102.064 84.4662L 102.563 84.4534L 102.563 84.4531L 102.064 84.4662ZM 100.814 17.9073C 100.747 14.5302 98.7592 11.4939 95.7245 9.9783L 95.2777 10.8729C 97.993 12.229 99.755 14.9362 99.8137 17.9269L 100.814 17.9073ZM 95.7187 9.97544C 87.9335 6.2127 71.2309 -0.5 51.0636 -0.5L 51.0636 0.5C 71.0214 0.5 87.5687 7.14707 95.2836 10.8758L 95.7187 9.97544ZM 51.0636 -0.5C 30.8964 -0.5 14.1938 6.2127 6.40857 9.97544L 6.84373 10.8758C 14.5585 7.14707 31.1059 0.5 51.0636 0.5L 51.0636 -0.5ZM 6.41062 9.97445C 3.36356 11.4301 1.37993 14.5359 1.31375 17.9073L 2.31355 17.9269C 2.37237 14.9305 4.13874 12.168 6.84167 10.8768L 6.41062 9.97445ZM 1.31383 17.9035L -0.498667 84.515L 0.500963 84.5423L 2.31346 17.9307L 1.31383 17.9035ZM -0.498687 84.5158C -0.570286 87.305 2.28932 89.3151 4.88077 88.2366L 4.49653 87.3133C 2.58798 88.1077 0.447583 86.6217 0.500984 84.5415L -0.498687 84.5158ZM 4.88103 88.2365C 12.7804 84.9436 29.8381 79.1603 51.0011 79.1603L 51.0011 78.1603C 29.6642 78.1603 12.4719 83.9888 4.49627 87.3134L 4.88103 88.2365ZM 51.0011 79.1603C 72.1643 79.1603 89.2851 84.9436 97.1869 88.1753L 97.5654 87.2497C 89.5922 83.9888 72.338 78.1603 51.0011 78.1603L 51.0011 79.1603ZM 97.184 88.1741C 99.7755 89.2527 102.635 87.2426 102.563 84.4534L 101.564 84.4791C 101.617 86.5593 99.4768 88.0452 97.5683 87.2509L 97.184 88.1741ZM 102.563 84.4531L 100.813 17.9039L 99.8138 17.9302L 101.564 84.4794L 102.563 84.4531Z"/>
<path id="path38_fill" d="M 93.1845 8.67761C 85.997 5.36888 71.747 0.0624327 47.9345 3.81035e-06C 24.122 3.81035e-06 9.87198 5.36888 2.68448 8.67761C 0.246984 9.80133 -0.753013 12.7979 0.621987 15.1702L 8.12199 28.0306C 9.05949 29.6537 11.122 30.278 12.8095 29.404C 18.1845 26.7195 29.3095 21.9125 47.997 21.9125C 66.6845 21.9125 77.8095 26.7195 83.1845 29.404C 84.872 30.2156 86.872 29.6537 87.872 28.0306L 95.372 15.1702C 96.622 12.7979 95.622 9.80133 93.1845 8.67761Z"/>
<path id="path39_stroke" d="M 93.1845 8.67761L 93.3938 8.22354L 93.3936 8.22342L 93.1845 8.67761ZM 47.9345 3.81035e-06L 47.9358 -0.499996L 47.9345 -0.499996L 47.9345 3.81035e-06ZM 2.68448 8.67761L 2.4754 8.22342L 2.47515 8.22354L 2.68448 8.67761ZM 0.621987 15.1702L 0.189396 15.4209L 0.19007 15.4221L 0.621987 15.1702ZM 8.12199 28.0306L 8.55496 27.7805L 8.5539 27.7787L 8.12199 28.0306ZM 12.8095 29.404L 12.5861 28.9566L 12.5795 28.96L 12.8095 29.404ZM 83.1845 29.404L 82.9611 29.8514L 82.9678 29.8546L 83.1845 29.404ZM 87.872 28.0306L 88.2978 28.2929L 88.3039 28.2824L 87.872 28.0306ZM 95.372 15.1702L 95.8039 15.4221L 95.8093 15.4128L 95.8143 15.4033L 95.372 15.1702ZM 93.3936 8.22342C 86.1497 4.88876 71.8292 -0.437354 47.9358 -0.499994L 47.9332 0.500002C 71.6648 0.562219 85.8442 5.849 92.9754 9.13179L 93.3936 8.22342ZM 47.9345 -0.499996C 24.0392 -0.499996 9.71811 4.88928 2.4754 8.22342L 2.89357 9.13179C 10.0259 5.84848 24.2048 0.500004 47.9345 0.500004L 47.9345 -0.499996ZM 2.47515 8.22354C -0.224954 9.46832 -1.33599 12.7892 0.189398 15.4209L 1.05458 14.9195C -0.170038 12.8066 0.718923 10.1343 2.89382 9.13168L 2.47515 8.22354ZM 0.19007 15.4221L 7.69007 28.2824L 8.5539 27.7787L 1.0539 14.9183L 0.19007 15.4221ZM 7.68902 28.2806C 8.7587 30.1326 11.1121 30.8462 13.0394 29.848L 12.5795 28.96C 11.1319 29.7098 9.36027 29.1748 8.55496 27.7805L 7.68902 28.2806ZM 13.0329 29.8513C 18.3567 27.1924 29.405 22.4125 47.997 22.4125L 47.997 21.4125C 29.2139 21.4125 18.0123 26.2466 12.5861 28.9567L 13.0329 29.8513ZM 47.997 22.4125C 66.5889 22.4125 77.6373 27.1924 82.9611 29.8513L 83.4079 28.9567C 77.9817 26.2466 66.78 21.4125 47.997 21.4125L 47.997 22.4125ZM 82.9678 29.8546C 84.8832 30.7758 87.1617 30.1366 88.2977 28.2928L 87.4463 27.7683C 86.5822 29.1708 84.8607 29.6553 83.4012 28.9534L 82.9678 29.8546ZM 88.3039 28.2824L 95.8039 15.4221L 94.9401 14.9183L 87.4401 27.7787L 88.3039 28.2824ZM 95.8143 15.4033C 97.1966 12.7799 96.0941 9.46839 93.3938 8.22354L 92.9752 9.13168C 95.1499 10.1343 96.0474 12.8159 94.9296 14.9371L 95.8143 15.4033Z"/>
<path id="path40_fill" d="M 21.7878 1.01946L 21.6628 0.332742C 19.2253 -0.728549 17.6628 0.894602 16.4128 3.14204C 16.4128 3.14204 10.7253 10.1341 5.72532 24.68C 0.725323 39.2259 0.100324 48.84 0.100324 48.84C -0.274676 50.4007 0.412824 51.8365 1.97532 51.5868L 17.5378 49.1521C 19.2878 48.9024 20.5378 47.4041 20.6003 45.6561L 21.7878 1.01946Z"/>
<path id="path41_stroke" d="M 21.7878 1.01946L 22.2876 1.03276L 22.289 0.980935L 22.2797 0.92993L 21.7878 1.01946ZM 21.6628 0.332742L 22.1547 0.243209L 22.107 -0.01921L 21.8624 -0.125689L 21.6628 0.332742ZM 16.4128 3.14204L 16.8007 3.45755L 16.8284 3.42347L 16.8498 3.38507L 16.4128 3.14204ZM 0.100324 48.84L 0.586487 48.9568L 0.596492 48.9151L 0.599271 48.8724L 0.100324 48.84ZM 1.97532 51.5868L 1.89804 51.0928L 1.89642 51.0931L 1.97532 51.5868ZM 17.5378 49.1521L 17.4672 48.6571L 17.4605 48.6581L 17.5378 49.1521ZM 20.6003 45.6561L 21.1 45.6739L 21.1001 45.6694L 20.6003 45.6561ZM 22.2797 0.92993L 22.1547 0.243209L 21.1709 0.422275L 21.2959 1.109L 22.2797 0.92993ZM 21.8624 -0.125689C 20.4956 -0.720827 19.3175 -0.571626 18.3198 0.0775175C 17.3624 0.700429 16.6106 1.75769 15.9759 2.89901L 16.8498 3.38507C 17.465 2.27895 18.1195 1.40092 18.8652 0.915718C 19.5706 0.456749 20.3926 0.325021 21.4632 0.791173L 21.8624 -0.125689ZM 16.4128 3.14204C 16.0249 2.82653 16.0248 2.82667 16.0247 2.82683C 16.0246 2.82692 16.0245 2.82711 16.0243 2.82729C 16.0241 2.82758 16.0236 2.82812 16.0232 2.8287C 16.0224 2.8297 16.021 2.83143 16.0194 2.83344C 16.0164 2.83716 16.0115 2.84319 16.0056 2.85063C 15.9942 2.86491 15.9765 2.88726 15.954 2.91587C 15.9102 2.97188 15.8438 3.05787 15.7592 3.17021C 15.592 3.3924 15.3444 3.73034 15.035 4.17717C 14.4198 5.0656 13.5412 6.41197 12.5104 8.2074C 10.4562 11.7869 7.76399 17.2142 5.25248 24.5175L 6.19817 24.8425C 8.68666 17.5998 11.3382 12.2582 13.3777 8.70519C 14.3939 6.93437 15.2496 5.62361 15.8571 4.74648C 16.1589 4.31052 16.3948 3.98857 16.5582 3.77157C 16.6389 3.66431 16.6995 3.58588 16.7414 3.53236C 16.7619 3.5062 16.7767 3.48752 16.7871 3.47445C 16.7921 3.46822 16.7955 3.464 16.798 3.46089C 16.7992 3.45948 16.7998 3.45864 16.8004 3.45794C 16.8006 3.45766 16.8007 3.45757 16.8008 3.45743C 16.8008 3.45739 16.8008 3.45743 16.8008 3.45741C 16.8008 3.45747 16.8007 3.45755 16.4128 3.14204ZM 5.25248 24.5175C 2.74478 31.8148 1.32963 37.8907 0.546171 42.1237C 0.153727 44.245 -0.0829208 45.9168 -0.220266 47.0503C -0.289182 47.6194 -0.333868 48.0589 -0.360944 48.3525C -0.374577 48.5005 -0.384019 48.6143 -0.389907 48.6894C -0.392893 48.7275 -0.395077 48.757 -0.396452 48.7762C -0.397159 48.7861 -0.397703 48.7939 -0.398041 48.7989C -0.39822 48.8015 -0.398366 48.8036 -0.398453 48.8049C -0.398501 48.8057 -0.398544 48.8063 -0.398567 48.8067C -0.398582 48.8069 -0.398595 48.8071 -0.398602 48.8072C -0.398614 48.8074 -0.398623 48.8075 0.100324 48.84C 0.599271 48.8724 0.599266 48.8725 0.599264 48.8725C 0.599267 48.8724 0.599267 48.8724 0.599273 48.8724C 0.599287 48.8721 0.599303 48.8719 0.599333 48.8714C 0.599402 48.8704 0.599492 48.8691 0.599633 48.867C 0.599934 48.8626 0.600362 48.8564 0.600991 48.8477C 0.602286 48.8296 0.604221 48.8034 0.607034 48.7675C 0.612743 48.6947 0.621611 48.5877 0.634833 48.4443C 0.661469 48.1554 0.704673 47.7301 0.772476 47.1706C 0.908568 46.047 1.14067 44.4061 1.52948 42.3057C 2.30852 38.0951 3.70586 32.0911 6.19817 24.8425L 5.25248 24.5175ZM -0.38584 48.7231C -0.594609 49.592 -0.523738 50.4865 -0.11509 51.1535C 0.316223 51.8575 1.08305 52.2358 2.05423 52.0806L 1.89642 51.0931C 1.3051 51.1876 0.946924 50.9728 0.737612 50.6311C 0.505636 50.2524 0.420257 49.6486 0.586487 48.9568L -0.38584 48.7231ZM 2.05261 52.0808L 17.6151 49.6461L 17.4605 48.6581L 1.89804 51.0928L 2.05261 52.0808ZM 17.6084 49.6471C 19.6152 49.3607 21.0295 47.6462 21.1 45.6739L 20.1006 45.6382C 20.0462 47.162 18.9604 48.444 17.4672 48.6571L 17.6084 49.6471ZM 21.1001 45.6694L 22.2876 1.03276L 21.288 1.00617L 20.1005 45.6428L 21.1001 45.6694Z"/>
<path id="path42_fill" d="M 20.7579 2.20652C 20.7579 0.895511 19.5704 -0.165779 18.2579 0.0215075L 3.25788 2.08167C 1.25788 2.39382 -0.117119 4.14182 0.00788079 6.07711C 0.570381 14.2553 2.57038 34.6695 7.50788 42.2858C 11.0079 47.6547 14.5079 51.2756 16.9454 53.3357C 18.1954 54.4595 20.1329 53.5855 20.1954 51.8999L 20.7579 2.20652Z"/>
<path id="path43_stroke" d="M 20.7579 2.20652L 21.2579 2.21218L 21.2579 2.20652L 20.7579 2.20652ZM 18.2579 0.0215075L 18.3259 0.516864L 18.3285 0.516493L 18.2579 0.0215075ZM 3.25788 2.08167L 3.18983 1.58624L 3.18078 1.58765L 3.25788 2.08167ZM 0.00788079 6.07711L -0.491084 6.10934L -0.490941 6.11142L 0.00788079 6.07711ZM 7.50788 42.2858L 7.08833 42.5578L 7.08902 42.5589L 7.50788 42.2858ZM 16.9454 53.3357L 17.2797 52.9639L 17.274 52.9588L 17.2681 52.9539L 16.9454 53.3357ZM 20.1954 51.8999L 20.6952 51.9184L 20.6953 51.9055L 20.1954 51.8999ZM 21.2579 2.20652C 21.2579 0.598744 19.8083 -0.704793 18.1872 -0.473478L 18.3285 0.516493C 19.3325 0.373235 20.2579 1.19228 20.2579 2.20652L 21.2579 2.20652ZM 18.1898 -0.473842L 3.18985 1.58632L 3.32591 2.57702L 18.3259 0.516857L 18.1898 -0.473842ZM 3.18078 1.58765C 0.927175 1.93938 -0.63288 3.91393 -0.49108 6.10934L 0.506841 6.04489C 0.398642 4.36971 1.58858 2.84825 3.33498 2.57569L 3.18078 1.58765ZM -0.490941 6.11142C -0.209309 10.2057 0.433834 17.378 1.62415 24.4749C 2.81032 31.5448 4.5559 38.6514 7.08833 42.5578L 7.92743 42.0139C 5.52236 38.3039 3.7992 31.3953 2.61036 24.3094C 1.42568 17.2506 0.78757 10.1267 0.506702 6.0428L -0.490941 6.11142ZM 7.08902 42.5589C 10.6169 47.9664 14.1663 51.6407 16.6226 53.7176L 17.2681 52.9539C 14.8494 50.9104 11.3988 47.343 7.92674 42.0128L 7.08902 42.5589ZM 16.6111 53.7076C 18.1976 55.1338 20.6179 53.999 20.695 51.9184L 19.6957 51.8814C 19.6479 53.1719 18.1932 53.7851 17.2797 52.9639L 16.6111 53.7076ZM 20.6953 51.9055L 21.2578 2.21218L 20.2579 2.20086L 19.6954 51.8942L 20.6953 51.9055Z"/>
<path id="path44_fill" d="M 70.3207 90.1472C 67.8832 84.7784 62.5707 70.6694 62.5707 49.5061C 62.5707 37.3949 68.0082 18.8535 70.3832 12.0488C 71.0082 10.2383 70.0707 8.42789 68.3832 7.55389C 60.2582 3.55844 49.3832 0.312148 35.3207 3.81035e-06C 21.2582 0.312148 10.3832 3.55844 2.25817 7.55389C 0.570667 8.42789 -0.366831 10.2383 0.258169 12.0488C 2.69567 18.8535 8.07067 37.3949 8.07067 49.5061C 8.07067 70.6694 2.75817 84.7784 0.320672 90.1472C -0.366828 91.708 0.0706647 93.456 1.44566 94.4548C 5.88316 97.7011 16.8832 104.006 35.3832 103.757C 53.8832 104.006 64.8207 97.7011 69.3207 94.4548C 70.5707 93.456 71.0082 91.6455 70.3207 90.1472Z"/>
<path id="path45_stroke" d="M 70.3207 90.1472L 69.8654 90.3539L 69.8662 90.3558L 70.3207 90.1472ZM 70.3832 12.0488L 70.8552 12.2135L 70.8558 12.2119L 70.3832 12.0488ZM 68.3832 7.55389L 68.6132 7.10981L 68.6038 7.1052L 68.3832 7.55389ZM 35.3207 3.81035e-06L 35.3318 -0.499873L 35.3207 -0.500119L 35.3096 -0.499873L 35.3207 3.81035e-06ZM 2.25817 7.55389L 2.03748 7.10511L 2.02821 7.1099L 2.25817 7.55389ZM 0.258169 12.0488L -0.214492 12.2119L -0.212544 12.2174L 0.258169 12.0488ZM 0.320672 90.1472L -0.134632 89.9405L -0.136901 89.9457L 0.320672 90.1472ZM 1.44566 94.4548L 1.74088 94.0513L 1.73953 94.0503L 1.44566 94.4548ZM 35.3832 103.757L 35.3899 103.257L 35.3764 103.257L 35.3832 103.757ZM 69.3207 94.4548L 69.6132 94.8603L 69.6232 94.8531L 69.6328 94.8454L 69.3207 94.4548ZM 70.7759 89.9406C 68.3617 84.6228 63.0707 70.5844 63.0707 49.5061L 62.0707 49.5061C 62.0707 70.7544 67.4047 84.9339 69.8654 90.3539L 70.7759 89.9406ZM 63.0707 49.5061C 63.0707 37.4862 68.4817 19.0142 70.8552 12.2135L 69.9111 11.884C 67.5347 18.6928 62.0707 37.3035 62.0707 49.5061L 63.0707 49.5061ZM 70.8558 12.2119C 71.5773 10.122 70.476 8.07473 68.6131 7.1099L 68.1532 7.99787C 69.6654 8.78105 70.4391 10.3546 69.9105 11.8856L 70.8558 12.2119ZM 68.6038 7.1052C 60.4406 3.09292 49.4609 -0.181769 35.3318 -0.499873L 35.3096 0.499881C 49.3054 0.806065 60.0757 4.02396 68.1625 8.00257L 68.6038 7.1052ZM 35.3096 -0.499873C 21.1804 -0.181769 10.2007 3.09292 2.03753 7.1052L 2.47881 8.00257C 10.5656 4.02396 21.3359 0.806065 35.3318 0.499881L 35.3096 -0.499873ZM 2.02821 7.1099C 0.165354 8.07473 -0.935935 10.122 -0.214461 12.2119L 0.730798 11.8856C 0.202272 10.3546 0.975979 8.78105 2.48812 7.99787L 2.02821 7.1099ZM -0.212544 12.2174C 2.22141 19.0122 7.57067 37.4856 7.57067 49.5061L 8.57067 49.5061C 8.57067 37.3041 3.16993 18.6948 0.728881 11.8802L -0.212544 12.2174ZM 7.57067 49.5061C 7.57067 70.5844 2.27967 84.6228 -0.134603 89.9406L 0.775948 90.3539C 3.23668 84.9339 8.57067 70.7544 8.57067 49.5061L 7.57067 49.5061ZM -0.136901 89.9457C -0.91535 91.7129 -0.421383 93.7165 1.1518 94.8594L 1.73953 94.0503C 0.562712 93.1954 0.181694 91.7031 0.778245 90.3488L -0.136901 89.9457ZM 1.15045 94.8584C 5.66063 98.1579 16.7644 104.508 35.3899 104.257L 35.3764 103.257C 17.0019 103.505 6.1057 97.2444 1.74088 94.0513L 1.15045 94.8584ZM 35.3764 104.257C 54.0032 104.508 65.0434 98.157 69.6132 94.8603L 69.0281 94.0493C 64.598 97.2453 53.7632 103.505 35.3899 103.257L 35.3764 104.257ZM 69.6328 94.8454C 71.0638 93.702 71.5575 91.6438 70.7751 89.9387L 69.8662 90.3558C 70.4588 91.6472 70.0776 93.21 69.0085 94.0642L 69.6328 94.8454Z"/>
<path id="path46_fill" d="M 17.6735 1.88968C 16.111 -0.357756 12.861 -0.669897 10.986 1.32783C 6.79847 5.76027 0.485975 13.1269 0.0484746 17.8715C -0.576526 25.0508 5.04847 22.8658 5.04847 22.8658L 19.986 13.8136C 22.236 12.4402 22.861 9.506 21.4235 7.32099L 17.6735 1.88968Z"/>
<path id="path47_stroke" d="M 17.6735 1.88968L 18.0849 1.60559L 18.084 1.60427L 17.6735 1.88968ZM 10.986 1.32783L 11.3494 1.6712L 11.3505 1.67L 10.986 1.32783ZM 0.0484746 17.8715L -0.44942 17.8256L -0.449641 17.8281L 0.0484746 17.8715ZM 5.04847 22.8658L 5.22952 23.3319L 5.27024 23.316L 5.30761 23.2934L 5.04847 22.8658ZM 19.986 13.8136L 20.2451 14.2412L 20.2465 14.2404L 19.986 13.8136ZM 21.4235 7.32099L 21.8413 7.04611L 21.8349 7.0369L 21.4235 7.32099ZM 18.084 1.60427C 16.3489 -0.891482 12.7246 -1.25518 10.6214 0.985649L 11.3505 1.67C 12.9974 -0.0846145 15.8731 0.17597 17.2629 2.1751L 18.084 1.60427ZM 10.6225 0.984458C 8.5237 3.20613 5.87721 6.18094 3.70549 9.19005C 1.54922 12.1789 -0.216968 15.3047 -0.449413 17.8256L 0.546362 17.9174C 0.751417 15.6936 2.36023 12.7639 4.51646 9.77513C 6.65724 6.80669 9.26075 3.88197 11.3494 1.67119L 10.6225 0.984458ZM -0.449641 17.8281C -0.610612 19.6772 -0.376862 20.9971 0.12722 21.9202C 0.640938 22.861 1.40757 23.3384 2.18629 23.5443C 2.93141 23.7343 3.72369 23.6838 4.26745 23.5872C 4.54603 23.5369 4.79095 23.4726 4.95152 23.4246C 5.03486 23.3996 5.1052 23.3763 5.14945 23.3609C 5.17299 23.3527 5.19319 23.3454 5.20525 23.341C 5.21196 23.3385 5.21807 23.3362 5.22146 23.3349C 5.22348 23.3342 5.22551 23.3334 5.22652 23.333C 5.22719 23.3327 5.22795 23.3325 5.22828 23.3323C 5.22853 23.3322 5.22884 23.3321 5.22897 23.3321C 5.22925 23.332 5.22952 23.3319 5.04847 22.8658C 4.86743 22.3997 4.86765 22.3996 4.86786 22.3995C 4.86789 22.3995 4.86808 22.3995 4.86816 22.3994C 4.86816 22.3994 4.86839 22.3993 4.86838 22.3993C 4.86803 22.3995 4.86802 22.3995 4.86734 22.3997C 4.86533 22.4005 4.86338 22.4012 4.85946 22.4027C 4.85028 22.4061 4.83897 22.4102 4.82147 22.4162C 4.78362 22.4294 4.73372 22.446 4.66447 22.4667C 4.51987 22.5101 4.33022 22.5605 4.09122 22.6028C 3.59982 22.6915 3.02491 22.7386 2.44191 22.5775C 1.89251 22.4322 1.37007 22.1097 1.00489 21.441C 0.630061 20.7546 0.395061 19.6554 0.546591 17.9148L -0.449641 17.8281ZM 5.30761 23.2934L 20.2451 14.2412L 19.7268 13.386L 4.78934 22.4382L 5.30761 23.2934ZM 20.2465 14.2404C 22.742 12.7171 23.4314 9.46339 21.8412 7.04618L 21.0058 7.5958C 22.2905 9.54861 21.73 12.1632 19.7255 13.3868L 20.2465 14.2404ZM 21.8349 7.0369L 18.0849 1.6056L 17.262 2.17377L 21.012 7.60508L 21.8349 7.0369Z"/>
<path id="path48_fill" d="M 100.784 10.12L 91.5336 0.880575C 90.4711 -0.180715 88.7211 -0.305569 87.5336 0.630864C 73.7836 11.4935 51.3461 11.8056 50.7836 11.8056C 50.2211 11.8056 27.7836 11.4935 14.0961 0.630864C 12.9086 -0.305569 11.1586 -0.180715 10.0961 0.880575L 0.846093 10.12C -0.341407 11.3062 -0.278905 13.2415 1.03359 14.3028C 6.7211 19.1722 23.1586 30.7216 50.7836 30.7216C 78.4086 30.7216 94.8461 19.1722 100.534 14.3028C 101.909 13.2415 101.971 11.3062 100.784 10.12Z"/>
<path id="path49_stroke" d="M 100.784 10.12L 101.137 9.76628L 100.784 10.12ZM 91.5336 0.880575L 91.1802 1.23433L 91.1802 1.23433L 91.5336 0.880575ZM 87.5336 0.630864L 87.224 0.238251L 87.2236 0.238524L 87.5336 0.630864ZM 14.0961 0.630864L 14.4069 0.239211L 14.4057 0.238251L 14.0961 0.630864ZM 10.0961 0.880575L 10.4494 1.23433L 10.4494 1.23433L 10.0961 0.880575ZM 0.846093 10.12L 0.492741 9.76628L 0.492741 9.76628L 0.846093 10.12ZM 1.03359 14.3028L 1.35891 13.9228L 1.34798 13.914L 1.03359 14.3028ZM 100.534 14.3028L 100.228 13.907L 100.218 13.9147L 100.208 13.923L 100.534 14.3028ZM 101.137 9.76628L 91.8869 0.52682L 91.1802 1.23433L 100.43 10.4738L 101.137 9.76628ZM 91.8869 0.526821C 90.6493 -0.709385 88.615 -0.858623 87.224 0.238251L 87.8432 1.02348C 88.8272 0.247485 90.2929 0.347955 91.1802 1.23433L 91.8869 0.526821ZM 87.2236 0.238524C 80.4259 5.61962 71.4902 8.37087 64.118 9.80088C 56.7636 11.2302 51.0615 11.3056 50.7836 11.3056L 50.7836 12.3056C 51.0682 12.3056 56.8661 12.225 64.3085 10.7826C 71.7333 9.34086 80.8913 6.50473 87.8436 1.0232L 87.2236 0.238524ZM 50.7836 11.3056C 50.5057 11.3056 44.8036 11.2302 37.4571 9.8009C 30.0928 8.37091 21.1731 5.61993 14.4069 0.239213L 13.7853 1.02251C 20.7066 6.50441 29.8494 9.34082 37.2664 10.7825C 44.7011 12.225 50.499 12.3056 50.7836 12.3056L 50.7836 11.3056ZM 14.4057 0.238251C 13.0147 -0.858623 10.9804 -0.709385 9.74274 0.526821L 10.4494 1.23433C 11.3368 0.347955 12.8024 0.247485 13.7865 1.02348L 14.4057 0.238251ZM 9.74274 0.52682L 0.492741 9.76628L 1.19944 10.4738L 10.4494 1.23433L 9.74274 0.52682ZM 0.492741 9.76628C -0.896724 11.1542 -0.833232 13.4363 0.719212 14.6916L 1.34798 13.914C 0.275422 13.0467 0.213909 11.4582 1.19944 10.4738L 0.492741 9.76628ZM 0.708413 14.6826C 6.46027 19.6071 23.0088 31.2216 50.7836 31.2216L 50.7836 30.2216C 23.3084 30.2216 6.98192 18.7373 1.35878 13.923L 0.708413 14.6826ZM 50.7836 31.2216C 78.5584 31.2216 95.1069 19.6071 100.859 14.6826L 100.208 13.923C 94.5853 18.7373 78.2588 30.2216 50.7836 30.2216L 50.7836 31.2216ZM 100.839 14.6986C 102.463 13.4452 102.529 11.1565 101.137 9.76628L 100.43 10.4738C 101.413 11.4559 101.354 13.0378 100.228 13.907L 100.839 14.6986Z"/>
<path id="path50_fill" d="M 101.5 0.48461C 94.6875 5.54135 78.875 14.7808 52.6875 15.53C 26.5 14.7808 10.6875 5.54135 3.875 0.48461C 2.25 -0.701538 -1.90735e-06 0.422185 -1.90735e-06 2.41991L -1.90735e-06 39.9396C -1.90735e-06 43.3732 1.75 46.6195 4.625 48.4924C 12.8125 53.7988 31 63.8499 52.625 64.7863C 74.25 63.8499 92.4375 53.7988 100.625 48.4924C 103.5 46.6195 105.25 43.3732 105.25 39.9396L 105.25 2.41991C 105.375 0.422185 103.125 -0.701538 101.5 0.48461Z"/>
<path id="path51_stroke" d="M 101.5 0.48461L 101.205 0.080742L 101.202 0.0831263L 101.5 0.48461ZM 52.6875 15.53L 52.6732 16.0298L 52.6875 16.0302L 52.7018 16.0298L 52.6875 15.53ZM 3.875 0.48461L 4.17302 0.0831135L 4.16979 0.0807549L 3.875 0.48461ZM 4.625 48.4924L 4.35208 48.9113L 4.35306 48.912L 4.625 48.4924ZM 52.625 64.7863L 52.6034 65.2859L 52.625 65.2868L 52.6466 65.2859L 52.625 64.7863ZM 100.625 48.4924L 100.897 48.912L 100.898 48.9113L 100.625 48.4924ZM 105.25 2.41991L 104.751 2.38868L 104.75 2.40428L 104.75 2.41991L 105.25 2.41991ZM 101.202 0.0831263C 94.4566 5.09002 78.741 14.2844 52.6732 15.0302L 52.7018 16.0298C 79.0091 15.2772 94.9184 5.99267 101.798 0.886095L 101.202 0.0831263ZM 52.7018 15.0302C 26.634 14.2844 10.9184 5.09002 4.17301 0.0831263L 3.57699 0.886095C 10.4566 5.99267 26.366 15.2772 52.6732 16.0298L 52.7018 15.0302ZM 4.16979 0.0807549C 2.22266 -1.34053 -0.500002 0.00295173 -0.500002 2.41991L 0.499998 2.41991C 0.499998 0.841419 2.27734 -0.0625489 3.58021 0.888466L 4.16979 0.0807549ZM -0.500002 2.41991L -0.500002 39.9396L 0.499998 39.9396L 0.499998 2.41991L -0.500002 2.41991ZM -0.500002 39.9396C -0.500002 43.5413 1.33458 46.9456 4.35208 48.9113L 4.89791 48.0734C 2.16542 46.2934 0.499998 43.2052 0.499998 39.9396L -0.500002 39.9396ZM 4.35306 48.912C 12.5555 54.2277 30.8647 64.3312 52.6034 65.2859L 52.6466 64.2868C 31.1353 63.3685 13.0695 53.37 4.89694 48.0728L 4.35306 48.912ZM 52.6466 65.2859C 74.3853 64.3312 92.6946 54.2277 100.897 48.912L 100.353 48.0728C 92.1805 53.37 74.1147 63.3685 52.6034 64.2868L 52.6466 65.2859ZM 100.898 48.9113C 103.915 46.9456 105.75 43.5413 105.75 39.9396L 104.75 39.9396C 104.75 43.2052 103.085 46.2934 100.352 48.0734L 100.898 48.9113ZM 105.75 39.9396L 105.75 2.41991L 104.75 2.41991L 104.75 39.9396L 105.75 39.9396ZM 105.749 2.45113C 105.903 -0.0157468 103.134 -1.32725 101.205 0.0807549L 101.795 0.888466C 103.116 -0.075821 104.847 0.860117 104.751 2.38868L 105.749 2.45113Z"/>
<path id="path52_fill" d="M 104.976 11.1123C 96.5382 7.49146 77.9757 0 54.4132 0C 30.8507 0 12.2257 7.49146 3.7882 11.1123C 0.663199 12.4858 -0.836798 16.1066 0.475702 19.2281L 4.4132 24.7218C 5.1007 26.4074 7.0382 27.1565 8.7257 26.4698C 15.7257 23.4108 34.4132 15.6072 54.3507 15.6072C 74.2882 15.6072 92.9757 23.4108 100.038 26.5323C 101.726 27.2814 103.663 26.4698 104.351 24.7843L 108.288 19.2905C 109.601 16.1066 108.163 12.4858 104.976 11.1123Z"/>
<path id="path53_stroke" d="M 104.976 11.1123L 105.174 10.6531L 105.173 10.6529L 104.976 11.1123ZM 3.7882 11.1123L 3.59101 10.6528L 3.58702 10.6546L 3.7882 11.1123ZM 0.475702 19.2281L 0.0147893 19.4219L 0.0365697 19.4737L 0.0693042 19.5194L 0.475702 19.2281ZM 4.4132 24.7218L 4.87617 24.533L 4.85392 24.4784L 4.8196 24.4305L 4.4132 24.7218ZM 8.7257 26.4698L 8.91423 26.9331L 8.92592 26.928L 8.7257 26.4698ZM 100.038 26.5323L 100.241 26.0753L 100.24 26.0749L 100.038 26.5323ZM 104.351 24.7843L 103.944 24.493L 103.91 24.5409L 103.888 24.5954L 104.351 24.7843ZM 108.288 19.2905L 108.695 19.5818L 108.728 19.5347L 108.75 19.4811L 108.288 19.2905ZM 105.173 10.6529C 96.7304 7.02986 78.071 -0.490832 54.4132 -0.5L 54.4132 0.5C 77.8804 0.490832 96.346 7.95306 104.779 11.5718L 105.173 10.6529ZM 54.4132 -0.5C 30.7557 -0.490887 12.0338 7.02975 3.59102 10.6529L 3.98538 11.5718C 12.4176 7.95317 30.9457 0.490887 54.4132 0.5L 54.4132 -0.5ZM 3.58702 10.6546C 0.220511 12.1342 -1.40707 16.0404 0.0147893 19.4219L 0.936614 19.0343C -0.266531 16.1729 1.10589 12.8374 3.98938 11.5701L 3.58702 10.6546ZM 0.0693042 19.5194L 4.0068 25.0131L 4.8196 24.4305L 0.882099 18.9368L 0.0693042 19.5194ZM 3.95023 24.9107C 4.74845 26.8677 6.98725 27.7171 8.91416 26.933L 8.53724 26.0067C 7.08915 26.596 5.45295 25.9471 4.87617 24.533L 3.95023 24.9107ZM 8.92592 26.928C 15.9222 23.8706 34.5115 16.0975 54.3507 16.1072L 54.3507 15.1072C 34.315 15.117 15.5293 22.951 8.52548 26.0117L 8.92592 26.928ZM 54.3507 16.1072C 74.19 16.0975 92.7783 23.8702 99.8361 26.9896L 100.24 26.0749C 93.1731 22.9514 74.3865 15.117 54.3507 15.1072L 54.3507 16.1072ZM 99.8353 26.9892C 101.786 27.8551 104.022 26.9147 104.814 24.9731L 103.888 24.5954C 103.305 26.025 101.666 26.7077 100.241 26.0753L 99.8353 26.9892ZM 104.757 25.0755L 108.695 19.5818L 107.882 18.9992L 103.944 24.493L 104.757 25.0755ZM 108.75 19.4811C 110.166 16.048 108.615 12.136 105.174 10.6531L 104.778 11.5715C 107.711 12.8355 109.036 16.1653 107.826 19.1L 108.75 19.4811Z"/>
<path id="path54_fill" d="M 0 0L 27.625 10.6727C 29.3125 11.297 30.4375 12.8577 30.4375 14.6681L 30.4375 19.2255C 30.4375 21.2232 28.4375 22.5966 26.5625 21.9099L 0 12"/>
<path id="path55_stroke" d="M 27.625 10.6727L 27.4448 11.1391L 27.4515 11.1416L 27.625 10.6727ZM 26.5625 21.9099L 26.3877 22.3784L 26.3905 22.3794L 26.5625 21.9099ZM -0.180191 0.466402L 27.4448 11.1391L 27.8052 10.2063L 0.180191 -0.466402L -0.180191 0.466402ZM 27.4515 11.1416C 28.9491 11.6957 29.9375 13.0736 29.9375 14.6681L 30.9375 14.6681C 30.9375 12.6418 29.6759 10.8983 27.7985 10.2038L 27.4515 11.1416ZM 29.9375 14.6681L 29.9375 19.2255L 30.9375 19.2255L 30.9375 14.6681L 29.9375 14.6681ZM 29.9375 19.2255C 29.9375 20.8694 28.2891 22.0098 26.7345 21.4404L 26.3905 22.3794C 28.5859 23.1834 30.9375 21.5769 30.9375 19.2255L 29.9375 19.2255ZM 26.7373 21.4414L 0.174772 11.5315L -0.174772 12.4685L 26.3877 22.3783L 26.7373 21.4414Z"/>
<path id="path56_fill" d="M 107.25 8.1853L 105.75 3.00371C 105.062 1.31813 103.187 -1.11661 100.062 0.568971C 93.2497 4.18984 73.8122 12.8675 53.8122 12.8675C 33.8747 12.8675 14.4372 4.25227 7.56218 0.568971C 4.43718 -1.11661 2.56219 1.31813 1.87469 3.00371L 0.374684 8.1853C -0.937816 11.3692 1.37468 13.3045 4.56218 14.6155C 12.9997 18.2363 30.1872 25.9151 53.8122 25.9775C 77.3747 25.9775 94.5622 18.2363 103.062 14.6155C 106.25 13.3045 108.562 11.3692 107.25 8.1853Z"/>
<path id="path57_stroke" d="M 107.25 8.1853L 106.769 8.32433L 106.777 8.35059L 106.787 8.37586L 107.25 8.1853ZM 105.75 3.00371L 106.23 2.86468L 106.223 2.83932L 106.213 2.81488L 105.75 3.00371ZM 100.062 0.568971L 100.297 1.01049L 100.3 1.00904L 100.062 0.568971ZM 7.56218 0.568971L 7.32482 1.00904L 7.32606 1.0097L 7.56218 0.568971ZM 1.87469 3.00371L 1.41171 2.81488L 1.40174 2.83932L 1.3944 2.86468L 1.87469 3.00371ZM 0.374684 8.1853L 0.836947 8.37586L 0.847364 8.35059L 0.854965 8.32433L 0.374684 8.1853ZM 4.56218 14.6155L 4.75939 14.1559L 4.75237 14.153L 4.56218 14.6155ZM 53.8122 25.9775L 53.8109 26.4775L 53.8122 26.4775L 53.8122 25.9775ZM 103.062 14.6155L 102.872 14.153L 102.866 14.1555L 103.062 14.6155ZM 107.73 8.04626L 106.23 2.86468L 105.269 3.14275L 106.769 8.32433L 107.73 8.04626ZM 106.213 2.81488C 105.848 1.92038 105.155 0.786945 104.091 0.101766C 102.985 -0.609947 101.54 -0.796391 99.8248 0.128905L 100.3 1.00904C 101.709 0.248753 102.764 0.43689 103.549 0.942547C 104.376 1.47474 104.964 2.40146 105.287 3.19254L 106.213 2.81488ZM 99.8275 0.127459C 93.0303 3.74054 73.708 12.3784 53.8122 12.3675L 53.8122 13.3675C 73.9164 13.3565 93.4691 4.63915 100.297 1.01048L 99.8275 0.127459ZM 53.8122 12.3675C 33.9782 12.3783 14.6567 3.80304 7.79831 0.128238L 7.32606 1.0097C 14.2177 4.70151 33.7711 13.3566 53.8122 13.3675L 53.8122 12.3675ZM 7.79955 0.128905C 6.08409 -0.796391 4.639 -0.609947 3.53368 0.101766C 2.46957 0.786945 1.77655 1.92038 1.41171 2.81488L 2.33766 3.19254C 2.66032 2.40146 3.24855 1.47474 4.07506 0.942546C 4.86037 0.43689 5.91528 0.248753 7.32482 1.00904L 7.79955 0.128905ZM 1.3944 2.86468L -0.105596 8.04626L 0.854965 8.32433L 2.35497 3.14275L 1.3944 2.86468ZM -0.0875784 7.99474C -0.809491 9.74596 -0.540775 11.2166 0.386109 12.4095C 1.2801 13.56 2.75428 14.4125 4.37199 15.0779L 4.75237 14.153C 3.18258 13.5074 1.90676 12.7367 1.17576 11.7959C 0.477642 10.8975 0.24636 9.80851 0.836947 8.37586L -0.0875784 7.99474ZM 4.365 15.0749C 12.7991 18.6943 30.0823 26.404 53.8109 26.4775L 53.8135 25.4775C 30.2921 25.4262 13.2003 17.7783 4.75936 14.156L 4.365 15.0749ZM 53.8122 26.4775C 77.4797 26.4664 94.7628 18.6943 103.258 15.0755L 102.866 14.1555C 94.3615 17.7784 77.2697 25.4887 53.8122 25.4775L 53.8122 26.4775ZM 103.252 15.0779C 104.87 14.4125 106.344 13.56 107.238 12.4095C 108.165 11.2166 108.434 9.74596 107.712 7.99474L 106.787 8.37586C 107.378 9.80851 107.147 10.8975 106.449 11.7959C 105.718 12.7367 104.442 13.5074 102.872 14.153L 103.252 15.0779Z"/>
<path id="path58_fill" d="M 2.49999 12.3609C 3.87499 12.3609 4.99999 11.2372 4.99999 9.86376L 4.99999 2.49715C 4.99999 1.12372 3.87499 0 2.49999 0C 1.12499 0 -7.6294e-06 1.12372 -7.6294e-06 2.49715L -7.6294e-06 9.80133C -7.6294e-06 11.1748 1.12499 12.3609 2.49999 12.3609Z"/>
<path id="path59_stroke" d="M 2.49999 12.8609C 4.1506 12.8609 5.49999 11.5139 5.49999 9.86376L 4.49999 9.86376C 4.49999 10.9605 3.59939 11.8609 2.49999 11.8609L 2.49999 12.8609ZM 5.49999 9.86376L 5.49999 2.49715L 4.49999 2.49715L 4.49999 9.86376L 5.49999 9.86376ZM 5.49999 2.49715C 5.49999 0.84704 4.1506 -0.5 2.49999 -0.5L 2.49999 0.5C 3.59939 0.5 4.49999 1.4004 4.49999 2.49715L 5.49999 2.49715ZM 2.49999 -0.5C 0.849387 -0.5 -0.500008 0.84704 -0.500008 2.49715L 0.499992 2.49715C 0.499992 1.4004 1.4006 0.5 2.49999 0.5L 2.49999 -0.5ZM -0.500008 2.49715L -0.500008 9.80133L 0.499992 9.80133L 0.499992 2.49715L -0.500008 2.49715ZM -0.500008 9.80133C -0.500008 11.4353 0.833537 12.8609 2.49999 12.8609L 2.49999 11.8609C 1.41645 11.8609 0.499992 10.9142 0.499992 9.80133L -0.500008 9.80133Z"/>
<path id="path60_fill" d="M 2.49999 12.3609C 3.87499 12.3609 4.99999 11.2372 4.99999 9.86375L 4.99999 2.49715C 4.99999 1.12372 3.87499 0 2.49999 0C 1.12499 0 -7.6294e-06 1.12372 -7.6294e-06 2.49715L -7.6294e-06 9.80134C -7.6294e-06 11.1748 1.12499 12.3609 2.49999 12.3609Z"/>
<path id="path61_stroke" d="M 2.49999 12.8609C 4.1506 12.8609 5.49999 11.5139 5.49999 9.86375L 4.49999 9.86375C 4.49999 10.9605 3.59939 11.8609 2.49999 11.8609L 2.49999 12.8609ZM 5.49999 9.86375L 5.49999 2.49715L 4.49999 2.49715L 4.49999 9.86375L 5.49999 9.86375ZM 5.49999 2.49715C 5.49999 0.84704 4.1506 -0.5 2.49999 -0.5L 2.49999 0.5C 3.59939 0.5 4.49999 1.4004 4.49999 2.49715L 5.49999 2.49715ZM 2.49999 -0.5C 0.849387 -0.5 -0.500008 0.84704 -0.500008 2.49715L 0.499992 2.49715C 0.499992 1.4004 1.4006 0.5 2.49999 0.5L 2.49999 -0.5ZM -0.500008 2.49715L -0.500008 9.80134L 0.499992 9.80134L 0.499992 2.49715L -0.500008 2.49715ZM -0.500008 9.80134C -0.500008 11.4354 0.833539 12.8609 2.49999 12.8609L 2.49999 11.8609C 1.41645 11.8609 0.499992 10.9142 0.499992 9.80134L -0.500008 9.80134Z"/>
<path id="path62_fill" d="M 4.52105 1.88968C 6.08355 -0.357756 9.33354 -0.669897 11.2085 1.32783C 15.396 5.76027 21.7085 13.1269 22.146 17.8715C 22.771 25.0508 17.146 22.8658 17.146 22.8658L 2.20854 13.8136C -0.0414585 12.4402 -0.666451 9.506 0.771049 7.32099L 4.52105 1.88968Z"/>
<path id="path63_stroke" d="M 4.52105 1.88968L 4.11051 1.60426L 4.10959 1.6056L 4.52105 1.88968ZM 11.2085 1.32783L 10.844 1.67001L 10.8451 1.67119L 11.2085 1.32783ZM 22.146 17.8715L 22.6442 17.8281L 22.6439 17.8256L 22.146 17.8715ZM 17.146 22.8658L 16.8869 23.2934L 16.9243 23.316L 16.965 23.3319L 17.146 22.8658ZM 2.20854 13.8136L 1.94803 14.2404L 1.94941 14.2412L 2.20854 13.8136ZM 0.771049 7.32099L 0.359491 7.03683L 0.35334 7.04618L 0.771049 7.32099ZM 4.93158 2.1751C 6.32145 0.17597 9.19713 -0.0846143 10.844 1.67L 11.5731 0.985649C 9.46994 -1.25518 5.84565 -0.891482 4.11052 1.60427L 4.93158 2.1751ZM 10.8451 1.67119C 12.9338 3.88197 15.5373 6.80669 17.678 9.77513C 19.8343 12.7639 21.4431 15.6936 21.6481 17.9174L 22.6439 17.8256C 22.4115 15.3047 20.6453 12.1789 18.489 9.19005C 16.3173 6.18094 13.6708 3.20613 11.572 0.984458L 10.8451 1.67119ZM 21.6479 17.9148C 21.7995 19.6554 21.5645 20.7546 21.1896 21.441C 20.8244 22.1097 20.302 22.4322 19.7526 22.5775C 19.1696 22.7386 18.5947 22.6915 18.1033 22.6028C 17.8643 22.5605 17.6746 22.5101 17.53 22.4667C 17.4608 22.446 17.4109 22.4294 17.373 22.4162C 17.3555 22.4102 17.3442 22.4061 17.3351 22.4027C 17.3311 22.4012 17.3292 22.4005 17.3272 22.3997C 17.3265 22.3995 17.3265 22.3995 17.3261 22.3993C 17.3261 22.3993 17.3264 22.3994 17.3264 22.3994C 17.3264 22.3995 17.3266 22.3995 17.3267 22.3995C 17.3269 22.3996 17.3271 22.3997 17.146 22.8658C 16.965 23.3319 16.9653 23.332 16.9655 23.3321C 16.9657 23.3321 16.966 23.3322 16.9662 23.3323C 16.9666 23.3325 16.9673 23.3327 16.968 23.333C 16.969 23.3334 16.971 23.3342 16.9731 23.3349C 16.9764 23.3362 16.9826 23.3385 16.9893 23.341C 17.0013 23.3454 17.0215 23.3527 17.0451 23.3609C 17.0893 23.3763 17.1596 23.3996 17.243 23.4246C 17.4036 23.4726 17.6485 23.5369 17.9271 23.5872C 18.4708 23.6838 19.2631 23.7343 20.0082 23.5443C 20.7869 23.3384 21.5536 22.861 22.0673 21.9202C 22.5714 20.9971 22.8051 19.6772 22.6442 17.8281L 21.6479 17.9148ZM 17.4052 22.4382L 2.46767 13.386L 1.94941 14.2412L 16.8869 23.2934L 17.4052 22.4382ZM 2.46905 13.3868C 0.464521 12.1632 -0.0959808 9.54861 1.18876 7.5958L 0.35334 7.04618C -1.23692 9.46339 -0.547438 12.7171 1.94803 14.2404L 2.46905 13.3868ZM 1.1825 7.60508L 4.9325 2.17377L 4.10959 1.6056L 0.359594 7.0369L 1.1825 7.60508Z"/>
<path id="path64_fill" d="M 30.4375 0L 2.8125 9.98862C 1.125 10.6129 0 12.1736 0 13.9841L 0 18.5414C 0 20.5391 2 21.9125 3.875 21.2258L 30.4375 11.3159"/>
<path id="path65_stroke" d="M 2.8125 9.98862L 2.64248 9.5184L 2.63902 9.51968L 2.8125 9.98862ZM 3.875 21.2258L 4.04696 21.6953L 4.04977 21.6943L 3.875 21.2258ZM 30.2675 -0.470207L 2.64248 9.51841L 2.98252 10.4588L 30.6075 0.470207L 30.2675 -0.470207ZM 2.63902 9.51968C 0.761636 10.2142 -0.5 11.9577 -0.5 13.9841L 0.5 13.9841C 0.5 12.3896 1.48836 11.0116 2.98598 10.4576L 2.63902 9.51968ZM -0.5 13.9841L -0.5 18.5414L 0.5 18.5414L 0.5 13.9841L -0.5 13.9841ZM -0.5 18.5414C -0.5 20.8928 1.85159 22.4994 4.04695 21.6953L 3.70304 20.7563C 2.1484 21.3257 0.5 20.1854 0.5 18.5414L -0.5 18.5414ZM 4.04977 21.6943L 30.6123 11.7844L 30.2627 10.8475L 3.70023 20.7573L 4.04977 21.6943Z"/>
<path id="path66_fill" d="M 0.5 8.14844C 0.5 8.14844 8.5 4.29771 14.125 2.73699C 17.125 1.92542 21.3125 0.926556 24.625 0.114982C 27.25 -0.509307 29.75 1.48842 29.75 4.17286L 29.75 5.29658C 29.75 8.66773 27.25 11.477 23.9375 11.9765C 17.8125 12.8505 8.6875 14.905 0 20.6484"/>
<path id="path67_stroke" d="M 14.125 2.73699L 13.9944 2.25433L 13.9913 2.25519L 14.125 2.73699ZM 24.625 0.114982L 24.5093 -0.371462L 24.506 -0.370655L 24.625 0.114982ZM 23.9375 11.9765L 24.0081 12.4715L 24.012 12.4709L 23.9375 11.9765ZM 0.5 8.14844C 0.716856 8.59896 0.716861 8.59896 0.716896 8.59894C 0.716949 8.59892 0.717014 8.59889 0.717119 8.59884C 0.717328 8.59874 0.717659 8.59858 0.71811 8.59836C 0.719013 8.59793 0.720398 8.59726 0.722262 8.59636C 0.725989 8.59458 0.731628 8.59187 0.73914 8.58827C 0.754163 8.58107 0.776675 8.57031 0.806361 8.55616C 0.865732 8.52786 0.953791 8.48603 1.06801 8.43216C 1.29644 8.32443 1.62947 8.1686 2.04683 7.97663C 2.88167 7.59264 4.05333 7.06438 5.39998 6.4876C 8.09877 5.33169 11.4798 3.98982 14.2587 3.21879L 13.9913 2.25519C 11.1452 3.04489 7.71373 4.40874 5.00627 5.56837C 3.64979 6.14936 2.46989 6.68133 1.62895 7.06812C 1.20843 7.26155 0.872502 7.41874 0.641467 7.52769C 0.525945 7.58217 0.436636 7.6246 0.376073 7.65347C 0.345792 7.6679 0.322696 7.67895 0.307102 7.68642C 0.299305 7.69015 0.293384 7.69299 0.289378 7.69492C 0.287375 7.69588 0.28585 7.69661 0.28481 7.69711C 0.284289 7.69736 0.28389 7.69755 0.283612 7.69769C 0.283473 7.69775 0.283356 7.69781 0.283287 7.69784C 0.2832 7.69789 0.283144 7.69791 0.5 8.14844ZM 14.2556 3.21964C 17.2479 2.41014 21.4255 1.41365 24.744 0.600618L 24.506 -0.370655C 21.1995 0.439464 17.0021 1.4407 13.9944 2.25434L 14.2556 3.21964ZM 24.7407 0.601414C 27.0489 0.0524674 29.25 1.80861 29.25 4.17286L 30.25 4.17286C 30.25 1.16822 27.4511 -1.07108 24.5093 -0.371451L 24.7407 0.601414ZM 29.25 4.17286L 29.25 5.29658L 30.25 5.29658L 30.25 4.17286L 29.25 4.17286ZM 29.25 5.29658C 29.25 8.41266 26.9386 11.0183 23.863 11.482L 24.012 12.4709C 27.5614 11.9357 30.25 8.9228 30.25 5.29658L 29.25 5.29658ZM 23.8669 11.4815C 17.7055 12.3607 8.49849 14.4305 -0.275746 20.2313L 0.275746 21.0655C 8.87651 15.3794 17.9195 13.3403 24.0081 12.4714L 23.8669 11.4815Z"/>
<path id="path68_fill" d="M 29.1875 8.14844C 29.1875 8.14844 21.25 4.29771 15.625 2.73699C 12.625 1.92542 8.43751 0.926556 5.12501 0.114982C 2.50001 -0.509307 0 1.48842 0 4.17286L 0 5.29658C 0 8.66773 2.5 11.477 5.8125 11.9765C 11.9375 12.8505 21 13.405 29.6875 19.1484"/>
<path id="path69_stroke" d="M 15.625 2.73699L 15.7587 2.25518L 15.7556 2.25434L 15.625 2.73699ZM 5.12501 0.114982L 5.24399 -0.370666L 5.24069 -0.371451L 5.12501 0.114982ZM 5.8125 11.9765L 5.73796 12.4709L 5.74187 12.4714L 5.8125 11.9765ZM 29.1875 8.14844C 29.4057 7.69858 29.4057 7.69855 29.4056 7.69851C 29.4055 7.69848 29.4054 7.69842 29.4053 7.69835C 29.405 7.69822 29.4046 7.69803 29.4041 7.69778C 29.403 7.69727 29.4015 7.69654 29.3995 7.69558C 29.3956 7.69365 29.3897 7.69081 29.3819 7.68707C 29.3665 7.6796 29.3435 7.66855 29.3135 7.65411C 29.2534 7.62523 29.1647 7.5828 29.05 7.52831C 28.8207 7.41934 28.4872 7.26213 28.0695 7.06868C 27.2344 6.68185 26.0622 6.14983 24.7134 5.56878C 22.0214 4.40907 18.6053 3.04501 15.7587 2.25519L 15.4913 3.21879C 18.2697 3.98969 21.6348 5.33136 24.3178 6.48719C 25.6565 7.06391 26.8203 7.59212 27.6492 7.97607C 28.0636 8.16802 28.3942 8.32383 28.6209 8.43155C 28.7342 8.4854 28.8216 8.52722 28.8805 8.55551C 28.9099 8.56966 28.9323 8.58042 28.9472 8.58762C 28.9546 8.59121 28.9602 8.59391 28.9639 8.5957C 28.9658 8.5966 28.9671 8.59726 28.968 8.59769C 28.9685 8.59791 28.9688 8.59807 28.969 8.59817C 28.9691 8.59822 28.9692 8.59825 28.9692 8.59828C 28.9693 8.59829 28.9693 8.59829 29.1875 8.14844ZM 15.7556 2.25434C 12.7479 1.4407 8.55055 0.439464 5.24399 -0.370655L 5.00603 0.600618C 8.32447 1.41365 12.5021 2.41014 15.4944 3.21964L 15.7556 2.25434ZM 5.24069 -0.371451C 2.2989 -1.07108 -0.5 1.16822 -0.5 4.17286L 0.5 4.17286C 0.5 1.80862 2.70112 0.0524671 5.00932 0.601414L 5.24069 -0.371451ZM -0.5 4.17286L -0.5 5.29658L 0.5 5.29658L 0.5 4.17286L -0.5 4.17286ZM -0.5 5.29658C -0.5 8.9228 2.18858 11.9357 5.73796 12.4709L 5.88705 11.482C 2.81143 11.0183 0.5 8.41266 0.5 5.29658L -0.5 5.29658ZM 5.74187 12.4714C 11.9093 13.3515 20.8391 13.898 29.4118 19.5655L 29.9632 18.7313C 21.1609 12.912 11.9657 12.3494 5.88313 11.4815L 5.74187 12.4714Z"/>
</defs>
</svg>
