<?xml version="1.0" encoding="utf-8"?>
<!-- Generator: Adobe Illustrator 21.1.0, SVG Export Plug-In . SVG Version: 6.00 Build 0)  -->
<svg version="1.1" id="Layer_1" xmlns="http://www.w3.org/2000/svg" xmlns:xlink="http://www.w3.org/1999/xlink" x="0px" y="0px"
	 viewBox="0 0 20 20" style="enable-background:new 0 0 20 20;" xml:space="preserve">
<style type="text/css">
	.st0{fill:#FFFFFF;}
</style>
<path class="st0" d="M19.6,15.5l-2.7-2.7c-0.6-0.6-1.5-0.6-2.1,0l-2.4,2.4c-3.2-1.6-5.9-4.3-7.5-7.5l2.4-2.4c0.6-0.6,0.6-1.5,0-2.1
	L4.5,0.4C3.9-0.1,3-0.1,2.4,0.4L2,0.8C0.6,2.2-0.1,4.1,0,6l0,0c0,0,0,0.3,0.1,0.8c0.1,0.3,0.1,0.7,0.2,1C0.8,9.4,2,12,5,15
	c3.1,3.1,5.7,4.2,7.4,4.7c0,0,0.1,0,0.1,0c0.2,0.1,0.4,0.1,0.5,0.1c0,0,0.1,0,0.1,0C13.7,20,14,20,14,20l0,0c1.9,0.1,3.8-0.6,5.2-2
	l0.4-0.4C20.1,17,20.1,16.1,19.6,15.5z"/>
</svg>
